<svg xmlns="http://www.w3.org/2000/svg" viewBox="0 0 500 500"><g id="freepik--Floor--inject-4"><path id="freepik--floor--inject-4" d="M101.33,286.45c-82.1,47.4-82.1,124.25,0,171.66s215.22,47.4,297.33,0,82.1-124.26,0-171.66S183.44,239,101.33,286.45Z" style="fill:#fafafa"></path></g><g id="freepik--Graphics--inject-4"><g id="freepik--Shine--inject-4"><g id="freepik--shine--inject-4"><path d="M321.06,88.61a.6.6,0,0,1-.61-.56l-.05-.6a3.11,3.11,0,0,0-2.88-2.88l-.59,0a.61.61,0,0,1,0-1.22l.59,0h0a3.1,3.1,0,0,0,2.88-2.88l.05-.59a.61.61,0,0,1,.61-.57h0a.61.61,0,0,1,.61.57l.05.59a3.1,3.1,0,0,0,2.88,2.88l.59,0a.61.61,0,0,1,0,1.22l-.59,0a3.11,3.11,0,0,0-2.88,2.88l-.05.59a.61.61,0,0,1-.61.57Zm-1.59-4.7a4.33,4.33,0,0,1,1.59,1.59,4.33,4.33,0,0,1,1.59-1.59,4.33,4.33,0,0,1-1.59-1.59A4.33,4.33,0,0,1,319.47,83.91Z" style="fill:#e0e0e0"></path><path d="M335.4,79.05a3.95,3.95,0,1,1,3.94-4A3.95,3.95,0,0,1,335.4,79.05Zm0-6.66a2.72,2.72,0,1,0,2.71,2.71A2.72,2.72,0,0,0,335.4,72.39Z" style="fill:#e0e0e0"></path><path d="M338.68,89.9a.61.61,0,0,1-.61-.61V87.24a.61.61,0,1,1,1.22,0v2.05A.61.61,0,0,1,338.68,89.9Z" style="fill:#e0e0e0"></path><path d="M337.45,91.13H335.4a.61.61,0,0,1-.61-.61.61.61,0,0,1,.61-.62h2.05a.62.62,0,0,1,.62.62A.61.61,0,0,1,337.45,91.13Z" style="fill:#e0e0e0"></path><path d="M338.68,94.53a.61.61,0,0,1-.61-.62v-2a.61.61,0,0,1,1.22,0v2A.61.61,0,0,1,338.68,94.53Z" style="fill:#e0e0e0"></path><path d="M342.08,91.13H340a.61.61,0,0,1-.62-.61.62.62,0,0,1,.62-.62h2.05a.61.61,0,0,1,.61.62A.61.61,0,0,1,342.08,91.13Z" style="fill:#e0e0e0"></path></g><g id="freepik--shine--inject-4"><path d="M40.93,325a.62.62,0,0,1,.12-.83l.47-.37a3.12,3.12,0,0,0,.74-4l-.3-.51a.62.62,0,0,1,1-.7l.38.47h0a3.1,3.1,0,0,0,4,.74l.52-.3a.61.61,0,0,1,.81.19h0a.61.61,0,0,1-.12.82l-.46.38a3.1,3.1,0,0,0-.75,4l.3.52a.61.61,0,0,1-1,.69l-.37-.47a3.12,3.12,0,0,0-4-.74l-.51.3a.63.63,0,0,1-.82-.18Zm3-4a4.35,4.35,0,0,1-.42,2.22,4.34,4.34,0,0,1,2.22.41,4.31,4.31,0,0,1,.41-2.21A4.21,4.21,0,0,1,43.91,321Z" style="fill:#e0e0e0"></path><path d="M56.94,331.36a3.94,3.94,0,1,1,5.48,1A3.94,3.94,0,0,1,56.94,331.36Zm5.48-3.76a2.71,2.71,0,1,0-.7,3.77A2.7,2.7,0,0,0,62.42,327.6Z" style="fill:#e0e0e0"></path><path d="M49.84,340.21a.61.61,0,0,1,.16-.85l1.69-1.16a.61.61,0,1,1,.7,1l-1.69,1.16A.62.62,0,0,1,49.84,340.21Z" style="fill:#e0e0e0"></path><path d="M48.14,339.9,47,338.21a.62.62,0,0,1,.16-.86.61.61,0,0,1,.85.16l1.16,1.69a.61.61,0,0,1-.16.85A.6.6,0,0,1,48.14,339.9Z" style="fill:#e0e0e0"></path><path d="M46,342.83a.61.61,0,0,1,.16-.85l1.69-1.17a.62.62,0,0,1,.7,1L46.89,343A.62.62,0,0,1,46,342.83Z" style="fill:#e0e0e0"></path><path d="M50.76,343.71,49.6,342a.61.61,0,0,1,.15-.86.62.62,0,0,1,.86.16L51.77,343a.62.62,0,0,1-.16.86A.61.61,0,0,1,50.76,343.71Z" style="fill:#e0e0e0"></path></g><g id="freepik--shine--inject-4"><path d="M430.08,250.75a.6.6,0,0,1-.82.15l-.5-.32a3.12,3.12,0,0,0-4,.59l-.39.45a.62.62,0,0,1-1-.73l.32-.51h0a3.1,3.1,0,0,0-.58-4l-.45-.39a.62.62,0,0,1-.09-.83h0a.6.6,0,0,1,.82-.15l.51.32a3.12,3.12,0,0,0,4-.59l.39-.45a.62.62,0,0,1,.83-.09.62.62,0,0,1,.15.83l-.32.5a3.1,3.1,0,0,0,.59,4l.44.39a.6.6,0,0,1,.09.83Zm-4.71-1.53a4.23,4.23,0,0,1,2.22-.33,4.36,4.36,0,0,1-.32-2.23A4.26,4.26,0,0,1,425,247,4.37,4.37,0,0,1,425.37,249.22Z" style="fill:#e0e0e0"></path><path d="M431,233.54a3.94,3.94,0,1,1-.8-5.52A4,4,0,0,1,431,233.54Zm-5.33-4a2.71,2.71,0,1,0,3.79-.55A2.7,2.7,0,0,0,425.67,229.56Z" style="fill:#e0e0e0"></path><path d="M441.66,237.41a.62.62,0,0,1-.86.12l-1.64-1.23a.61.61,0,0,1-.13-.86.62.62,0,0,1,.86-.12l1.64,1.23A.61.61,0,0,1,441.66,237.41Z" style="fill:#e0e0e0"></path><path d="M441.91,239.12l-1.23,1.65a.62.62,0,0,1-.86.12.61.61,0,0,1-.12-.86l1.22-1.64a.62.62,0,1,1,1,.73Z" style="fill:#e0e0e0"></path><path d="M445.36,240.17a.62.62,0,0,1-.86.13l-1.64-1.23a.62.62,0,0,1,.73-1l1.65,1.23A.61.61,0,0,1,445.36,240.17Z" style="fill:#e0e0e0"></path><path d="M444.67,235.42l-1.22,1.64a.61.61,0,0,1-.86.12.6.6,0,0,1-.13-.85l1.23-1.65a.61.61,0,1,1,1,.74Z" style="fill:#e0e0e0"></path></g><g id="freepik--shine--inject-4"><path d="M219.45,224.82a.62.62,0,0,1,0-.84l.39-.45a3.11,3.11,0,0,0,0-4.07l-.39-.45a.61.61,0,0,1,.86-.87l.46.39h0a3.11,3.11,0,0,0,4.07,0l.45-.39a.62.62,0,0,1,.87.87l-.39.45a3.11,3.11,0,0,0,0,4.07l.39.46a.61.61,0,0,1-.87.86l-.45-.39a3.11,3.11,0,0,0-4.07,0l-.45.39A.62.62,0,0,1,219.45,224.82Zm2.2-4.45a4.29,4.29,0,0,1,0,2.25,4.29,4.29,0,0,1,2.25,0,4.29,4.29,0,0,1,0-2.25A4.29,4.29,0,0,1,221.65,220.37Z" style="fill:#e0e0e0"></path><path d="M204.41,229.38a3.94,3.94,0,1,1,5.57,0A3.94,3.94,0,0,1,204.41,229.38Zm4.7-4.7a2.71,2.71,0,1,0,0,3.83A2.7,2.7,0,0,0,209.11,224.68Z" style="fill:#e0e0e0"></path><path d="M207.76,208.71a.62.62,0,0,1,0-.87l1.45-1.45a.62.62,0,0,1,.87.87l-1.45,1.45A.62.62,0,0,1,207.76,208.71Z" style="fill:#e0e0e0"></path><path d="M206,208.71l-1.45-1.46a.6.6,0,0,1,0-.86.62.62,0,0,1,.87,0l1.45,1.45a.62.62,0,0,1,0,.87A.62.62,0,0,1,206,208.71Z" style="fill:#e0e0e0"></path><path d="M204.49,212a.6.6,0,0,1,0-.86l1.45-1.45a.62.62,0,0,1,.87,0,.6.6,0,0,1,0,.86L205.36,212A.62.62,0,0,1,204.49,212Z" style="fill:#e0e0e0"></path><path d="M209.3,212l-1.45-1.45a.6.6,0,0,1,0-.86.62.62,0,0,1,.87,0l1.45,1.45a.6.6,0,0,1,0,.86A.62.62,0,0,1,209.3,212Z" style="fill:#e0e0e0"></path></g><g id="freepik--shine--inject-4"><path d="M465.14,344.57a.61.61,0,0,1-.35-.75l.18-.57a3.11,3.11,0,0,0-1.6-3.75l-.53-.26a.61.61,0,0,1,.45-1.14l.57.18h0a3.11,3.11,0,0,0,3.75-1.6l.26-.53a.62.62,0,0,1,1.14.46l-.18.56a3.11,3.11,0,0,0,1.6,3.75l.53.27a.61.61,0,0,1,.3.78.62.62,0,0,1-.76.35l-.57-.18a3.1,3.1,0,0,0-3.74,1.6l-.27.53A.61.61,0,0,1,465.14,344.57Zm.28-4.95a4.26,4.26,0,0,1,.88,2.07,4.33,4.33,0,0,1,2.08-.88,4.31,4.31,0,0,1-.89-2.08A4.27,4.27,0,0,1,465.42,339.62Z" style="fill:#e0e0e0"></path><path d="M453.09,354.67a3.94,3.94,0,1,1,5.13-2.19A4,4,0,0,1,453.09,354.67Zm2.49-6.18a2.72,2.72,0,1,0,1.5,3.53A2.72,2.72,0,0,0,455.58,348.49Z" style="fill:#e0e0e0"></path><path d="M448.07,334.33a.62.62,0,0,1-.34-.8l.77-1.9a.61.61,0,0,1,1.14.46l-.77,1.9A.6.6,0,0,1,448.07,334.33Z" style="fill:#e0e0e0"></path><path d="M446.48,335l-1.9-.77a.6.6,0,0,1-.34-.8.61.61,0,0,1,.79-.34l1.91.77a.61.61,0,1,1-.46,1.14Z" style="fill:#e0e0e0"></path><path d="M446.35,338.62a.61.61,0,0,1-.34-.8l.76-1.9a.61.61,0,0,1,.8-.34.6.6,0,0,1,.34.8l-.76,1.9A.62.62,0,0,1,446.35,338.62Z" style="fill:#e0e0e0"></path><path d="M450.77,336.74l-1.9-.77a.61.61,0,0,1,.45-1.14l1.91.77a.61.61,0,0,1,.34.79A.62.62,0,0,1,450.77,336.74Z" style="fill:#e0e0e0"></path></g><g id="freepik--shine--inject-4"><path d="M52.05,144.47l0,0a.61.61,0,0,1-.79-.25l-.3-.52h0a3.11,3.11,0,0,0-3.84-1.36l-.56.21a.61.61,0,0,1-.52-1.1l.51-.3a3.11,3.11,0,0,0,1.37-3.84l-.22-.55A.63.63,0,0,1,48,136a.62.62,0,0,1,.8.25l.29.51a3.12,3.12,0,0,0,3.84,1.37l.56-.22a.61.61,0,0,1,.77.31.62.62,0,0,1-.24.8l-.52.29a3.11,3.11,0,0,0-1.36,3.84l.21.56A.6.6,0,0,1,52.05,144.47Zm-3.49-3.54a4.27,4.27,0,0,1,2.13.75,4.18,4.18,0,0,1,.75-2.12,4.34,4.34,0,0,1-2.12-.75A4.29,4.29,0,0,1,48.56,140.93Z" style="fill:#e0e0e0"></path><path d="M69.17,157.5a3.85,3.85,0,0,1-2.38.41,4,4,0,1,1,2.38-.41Zm-3.08-5.89c-.13.07-.25.15-.37.23a2.71,2.71,0,0,0-.54,3.8A2.66,2.66,0,0,0,67,156.7a2.71,2.71,0,1,0-.87-5.09Z" style="fill:#e0e0e0"></path><path d="M45.89,161.89h0l-1.83.92a.61.61,0,1,1-.55-1.1l1.83-.92a.63.63,0,0,1,.83.27A.61.61,0,0,1,45.89,161.89Z" style="fill:#e0e0e0"></path><path d="M48.46,164.27h0a.62.62,0,0,1-.83-.27l-.92-1.84a.63.63,0,0,1,.28-.82.6.6,0,0,1,.82.27l.92,1.83A.62.62,0,0,1,48.46,164.27Z" style="fill:#e0e0e0"></path><path d="M50,159.82h0l-1.83.92a.61.61,0,0,1-.55-1.1l1.83-.92a.62.62,0,0,1,.83.27A.61.61,0,0,1,50,159.82Z" style="fill:#e0e0e0"></path><path d="M46.38,160.14h0a.61.61,0,0,1-.82-.28L44.63,158a.61.61,0,1,1,1.1-.55l.92,1.83A.61.61,0,0,1,46.38,160.14Z" style="fill:#e0e0e0"></path></g></g></g><g id="freepik--Plants--inject-4"><g id="freepik--plants--inject-4"><path d="M99.53,410.38l6.8-4.86s2.57-18.23-.68-34.09c-4.58-22.31-20.23-29.36-25.69-26.87s-6.45,9.21,4.18,21.73C90.41,373.68,98.77,389.52,99.53,410.38Z" style="fill:#9615DB"></path><g style="opacity:0.65"><path d="M99.53,410.38l6.8-4.86s2.57-18.23-.68-34.09c-4.58-22.31-20.23-29.36-25.69-26.87s-6.45,9.21,4.18,21.73C90.41,373.68,98.77,389.52,99.53,410.38Z" style="fill:#fff"></path></g><path d="M101.67,401.34h-.07a.5.5,0,0,1-.45-.55c1.94-21.17-7.57-43.82-17.5-52.68a.51.51,0,0,1-.05-.71.51.51,0,0,1,.71,0c10.11,9,19.81,32,17.84,53.53A.5.5,0,0,1,101.67,401.34Z" style="fill:#fff"></path><path d="M82.41,422.6c-1,.65-4.12-1.52-5-2a10.15,10.15,0,0,1-3.51-3.68,9.4,9.4,0,0,1-1.09-5.61,22.48,22.48,0,0,1,.58-3c.23-1,.46-2,.7-2.95a7.46,7.46,0,0,0,.29-3c-.34-2-2.18-3.3-3.84-4.43-1.84-1.25-3.77-2.92-3.87-5.32a8.45,8.45,0,0,1,1.88-5.12c1.08-1.5,2.38-2.85,3.35-4.43a5.88,5.88,0,0,0,1-3.78A6.22,6.22,0,0,0,72,377a32.64,32.64,0,0,1-2.76-4.55c-.67-1.65-.68-3.74.58-5a5.48,5.48,0,0,1,4.08-1.22,9.55,9.55,0,0,1,3.9,1.18c3.9,1.94,6.29,6.35,10.4,7.79a40.88,40.88,0,0,0,5,1,6.05,6.05,0,0,1,4.16,2.57c1.62,2.9-1,6.68.22,9.77,1.05,2.75,3.8,3.69,5.44,6.13a6,6,0,0,1,.87,3.61,17.43,17.43,0,0,1-1.25,6.23,56,56,0,0,1-3.1,5.94S82.57,422.5,82.41,422.6Z" style="fill:#9615DB"></path><g style="opacity:0.30000000000000004"><path d="M82.41,422.6c-1,.65-4.12-1.52-5-2a10.15,10.15,0,0,1-3.51-3.68,9.4,9.4,0,0,1-1.09-5.61,22.48,22.48,0,0,1,.58-3c.23-1,.46-2,.7-2.95a7.46,7.46,0,0,0,.29-3c-.34-2-2.18-3.3-3.84-4.43-1.84-1.25-3.77-2.92-3.87-5.32a8.45,8.45,0,0,1,1.88-5.12c1.08-1.5,2.38-2.85,3.35-4.43a5.88,5.88,0,0,0,1-3.78A6.22,6.22,0,0,0,72,377a32.64,32.64,0,0,1-2.76-4.55c-.67-1.65-.68-3.74.58-5a5.48,5.48,0,0,1,4.08-1.22,9.55,9.55,0,0,1,3.9,1.18c3.9,1.94,6.29,6.35,10.4,7.79a40.88,40.88,0,0,0,5,1,6.05,6.05,0,0,1,4.16,2.57c1.62,2.9-1,6.68.22,9.77,1.05,2.75,3.8,3.69,5.44,6.13a6,6,0,0,1,.87,3.61,17.43,17.43,0,0,1-1.25,6.23,56,56,0,0,1-3.1,5.94S82.57,422.5,82.41,422.6Z" style="fill:#fff"></path></g><path d="M92.31,416.16h0a.47.47,0,0,1-.48-.48c-.08-18.86-9.91-39.24-16.63-45a.47.47,0,1,1,.61-.72c6.87,5.85,16.89,26.57,17,45.7A.48.48,0,0,1,92.31,416.16Z" style="fill:#fff"></path><path d="M88.23,393.28h-.14a63.37,63.37,0,0,0-13.76-1.58.47.47,0,0,1-.48-.47.47.47,0,0,1,.47-.48,64.55,64.55,0,0,1,14,1.61.47.47,0,0,1,.34.58A.48.48,0,0,1,88.23,393.28Z" style="fill:#fff"></path></g><g id="freepik--plants--inject-4"><path d="M442.55,357.27c-4.8,9.26-15.56,14.27-19.53,37.21a89.14,89.14,0,0,0-1.34,19.8l-9.06-5.23c-1.68-9.16-3.19-24.9,1.35-41.29,3.94-14.25,13.19-21.9,19.22-23.36C440,342.77,447.59,347.53,442.55,357.27Z" style="fill:#9615DB"></path><path d="M442.55,357.27c-4.8,9.26-15.56,14.27-19.53,37.21a89.14,89.14,0,0,0-1.34,19.8l-9.06-5.23c-1.68-9.16-3.19-24.9,1.35-41.29,3.94-14.25,13.19-21.9,19.22-23.36C440,342.77,447.59,347.53,442.55,357.27Z" style="fill:#fff;opacity:0.5"></path><path d="M418,410.37a.41.41,0,0,0,.34-.46c-6.11-26.51,5.92-51.11,16.41-60.11a.36.36,0,0,0,0-.54.47.47,0,0,0-.61,0c-10.64,9.13-22.85,34-16.68,60.84A.4.4,0,0,0,418,410.37Z" style="fill:#fff"></path><path d="M433.13,398c-5.89,6.21-9.1,11.79-10.34,17l-5.53-3.19c-1.66-18.11,9.16-30.59,14.52-34.33,6-4.16,14.86-6.65,17.22-.88S440.65,390,433.13,398Z" style="fill:#9615DB"></path><path d="M433.13,398c-5.89,6.21-9.1,11.79-10.34,17l-5.53-3.19c-1.66-18.11,9.16-30.59,14.52-34.33,6-4.16,14.86-6.65,17.22-.88S440.65,390,433.13,398Z" style="fill:#fff;opacity:0.65"></path><path d="M419.65,412.43a.42.42,0,0,0,.34-.4c-.29-13.27,14.93-32,22.52-35.62a.38.38,0,0,0,.21-.52.45.45,0,0,0-.58-.16c-8,3.77-23.31,22.57-23,36.35a.39.39,0,0,0,.44.36Z" style="fill:#fff"></path></g></g><g id="freepik--Shadows--inject-4"><ellipse id="freepik--Shadow--inject-4" cx="373.12" cy="425.87" rx="60.91" ry="35.17" style="fill:#e0e0e0"></ellipse><ellipse id="freepik--shadow--inject-4" cx="142.81" cy="423.82" rx="60.91" ry="35.17" style="fill:#e0e0e0"></ellipse><path id="freepik--shadow--inject-4" d="M253.15,407.08a4.51,4.51,0,0,1-4.38-3.63l-.74-3.9a48.11,48.11,0,0,1-5-1.23l-7.58,3.51a5.08,5.08,0,0,1-2.15.45,5.2,5.2,0,0,1-2.59-.66L223,397.14a3.85,3.85,0,0,1-.32-6.56l4.07-2.93c-.2-.28-.38-.56-.55-.85l-9.49-.6a4.32,4.32,0,0,1-4-4.31v-5.77a4.32,4.32,0,0,1,4.05-4.3l9.48-.6c.17-.29.35-.57.55-.85l-4.07-2.93a3.84,3.84,0,0,1,.33-6.56l7.76-4.48a5.24,5.24,0,0,1,2.6-.67,5.07,5.07,0,0,1,2.14.46l7.58,3.51a50.83,50.83,0,0,1,5-1.24l.74-3.9a4.53,4.53,0,0,1,4.38-3.62h11.41a4.53,4.53,0,0,1,4.38,3.63l.73,3.89a49.44,49.44,0,0,1,5,1.24l7.59-3.51a5,5,0,0,1,2.14-.46,5.24,5.24,0,0,1,2.6.67l7.76,4.48a3.85,3.85,0,0,1,.33,6.56L291,370.37c.19.28.38.56.55.85l9.48.6a4.32,4.32,0,0,1,4.05,4.3v5.77A4.33,4.33,0,0,1,301,386.2l-9.48.6c-.17.29-.36.57-.55.85l4.07,2.93a3.85,3.85,0,0,1-.33,6.56L287,401.62a5.24,5.24,0,0,1-2.6.66h0a5.07,5.07,0,0,1-2.14-.45l-7.59-3.51a48.77,48.77,0,0,1-5,1.23l-.74,3.9a4.51,4.51,0,0,1-4.37,3.63Zm5.7-35.5a23.74,23.74,0,0,0-11.47,2.7c-2.41,1.39-3.79,3.11-3.79,4.73s1.38,3.34,3.79,4.73a25.82,25.82,0,0,0,22.95,0c2.4-1.39,3.79-3.12,3.79-4.73s-1.39-3.34-3.79-4.73A23.75,23.75,0,0,0,258.85,371.58Z" style="fill:#e0e0e0"></path><path id="freepik--shadow--inject-4" d="M186.18,381a4.24,4.24,0,0,1-.51,0l-7.19-.75a4.74,4.74,0,0,1-4.23-5.3l.13-1.11c-.6-.22-1.2-.46-1.77-.71,0,0,0,0,0,0h-.08l-5.45,1.71a5.7,5.7,0,0,1-1.66.25,6.12,6.12,0,0,1-3.84-1.33l-3.66-3.06a4.27,4.27,0,0,1,.82-7.21l1.25-.62-3.37-.58a4.59,4.59,0,0,1-3.63-5.93l1-3.18a5.27,5.27,0,0,1,4.94-3.62l6.11.24-.79-.84a4.3,4.3,0,0,1,1.57-7.06l5.74-2.3a5.83,5.83,0,0,1,2.15-.39,6.08,6.08,0,0,1,3.34,1l3.73,2.47h0c1.08-.19,2.18-.33,3.28-.43l1.11-2.16a5.51,5.51,0,0,1,4.81-2.92,4.41,4.41,0,0,1,.52,0l7.18.75a4.74,4.74,0,0,1,4.23,5.3l-.13,1.11c.61.22,1.2.46,1.78.71,0,0,0,0,0,0h.08l5.46-1.71a5.63,5.63,0,0,1,1.65-.25,6.12,6.12,0,0,1,3.84,1.33l3.67,3.06a4.26,4.26,0,0,1-.84,7.21l-1.24.62,3.37.58a4.59,4.59,0,0,1,3.63,5.93l-1,3.18a5.3,5.3,0,0,1-5,3.63l-6.11-.25.79.84a4.39,4.39,0,0,1,1.14,3.95,4.43,4.43,0,0,1-2.7,3.11l-5.75,2.3a5.74,5.74,0,0,1-2.14.39,6.11,6.11,0,0,1-3.35-1l-3.72-2.47h0c-1.06.19-2.16.33-3.27.43L191,378.08A5.52,5.52,0,0,1,186.18,381Zm1.9-26.37a17.72,17.72,0,0,0-6.51,1.17c-2.52,1-3.57,2.3-3.69,3.09s.68,1.59,1.17,2c1.93,1.6,5.4,2.59,9,2.59a17.81,17.81,0,0,0,6.52-1.16c2.52-1,3.56-2.3,3.69-3.09s-.69-1.59-1.18-2C195.21,355.63,191.74,354.63,188.08,354.63Z" style="fill:#e0e0e0"></path><path id="freepik--shadow--inject-4" d="M325.78,378.5a4.24,4.24,0,0,1-.51,0l-7.19-.75a4.74,4.74,0,0,1-4.23-5.3l.13-1.11c-.6-.22-1.2-.46-1.77-.71,0,0,0,0,0,0h-.08l-5.46,1.71a5.27,5.27,0,0,1-1.65.25,6.12,6.12,0,0,1-3.84-1.33l-3.66-3.06a4.27,4.27,0,0,1,.82-7.21l1.25-.62-3.37-.58a4.59,4.59,0,0,1-3.63-5.93l1-3.18a5.27,5.27,0,0,1,4.94-3.62l6.11.24-.79-.84a4.3,4.3,0,0,1,1.56-7.05l5.75-2.31a5.83,5.83,0,0,1,2.15-.39,6.08,6.08,0,0,1,3.34,1l3.73,2.47h0c1.08-.19,2.18-.33,3.28-.43l1.11-2.16a5.51,5.51,0,0,1,4.81-2.92,4.41,4.41,0,0,1,.52,0l7.18.75a4.76,4.76,0,0,1,4.23,5.3l-.13,1.11c.61.23,1.2.46,1.78.71,0,0,0,0,0,0h.08l5.46-1.71a5.63,5.63,0,0,1,1.65-.25,6.07,6.07,0,0,1,3.84,1.34l3.67,3.05a4.26,4.26,0,0,1-.84,7.21l-1.24.63,3.37.57a4.59,4.59,0,0,1,3.63,5.94l-1,3.17a5.3,5.3,0,0,1-4.95,3.63l-6.11-.25.79.84a4.31,4.31,0,0,1-1.56,7.06l-5.75,2.3a5.77,5.77,0,0,1-2.14.39,6.19,6.19,0,0,1-3.35-.95L335,373h0c-1.07.19-2.16.33-3.27.43l-1.11,2.17A5.53,5.53,0,0,1,325.78,378.5Zm1.9-26.36a17.72,17.72,0,0,0-6.51,1.16c-2.52,1-3.57,2.3-3.69,3.09s.68,1.59,1.17,2c1.93,1.6,5.4,2.6,9.05,2.6a17.72,17.72,0,0,0,6.51-1.17c2.53-1,3.57-2.29,3.7-3.09s-.69-1.59-1.18-2C334.81,353.13,331.34,352.14,327.68,352.14Z" style="fill:#e0e0e0"></path></g><g id="freepik--Gears--inject-4"><g id="freepik--gears--inject-4"><g id="freepik--Gear--inject-4"><path d="M199.2,341.13a1.56,1.56,0,0,1-1.07-1.62l.33-2.73a1.26,1.26,0,0,0-1.12-1.4l-7.18-.75a2,2,0,0,0-1.86,1l-1.43,2.79a2.5,2.5,0,0,1-1.86,1.21c-1.25.1-2.5.25-3.72.46a3.67,3.67,0,0,1-2.32-.46l-3.87-2.57a2.73,2.73,0,0,0-2.25-.23l-5.74,2.3a.85.85,0,0,0-.6.74h0v.07h0v5.87h0a.94.94,0,0,0,.28.64l.34.36a3,3,0,0,1-1.58.49L159,347a1.77,1.77,0,0,0-1.66,1.17l-1,3.18a1.29,1.29,0,0,0,0,.39h0v5.93h0a1.09,1.09,0,0,0,.93,1l5.09.87-2,1a.81.81,0,0,0-.52.72h0v5.94h0a.89.89,0,0,0,.35.65l3.67,3.06a2.64,2.64,0,0,0,2.21.43l5.59-1.75a3.92,3.92,0,0,1,2.37.15,28.08,28.08,0,0,0,3,1.11,1.55,1.55,0,0,1,.74.52v4h0a1.25,1.25,0,0,0,1.12,1.23l7.19.75a2,2,0,0,0,1.85-1l1.43-2.79a2.5,2.5,0,0,1,1.86-1.21c1.25-.1,2.5-.25,3.72-.47a3.68,3.68,0,0,1,2.32.47l3.87,2.57a2.73,2.73,0,0,0,2.25.23l5.75-2.3a.84.84,0,0,0,.59-.77h0v-5.92h0a1,1,0,0,0-.28-.64l-.33-.35a3,3,0,0,1,1.58-.49l6.56.26a1.75,1.75,0,0,0,1.66-1.16l1-3.18a1.12,1.12,0,0,0,0-.36h0v-5.91l0,0a1.05,1.05,0,0,0-.91-1.1l-5.09-.87,2-1a.8.8,0,0,0,.51-.73h0v-5.9h0a.88.88,0,0,0-.36-.68l-3.67-3.06a2.62,2.62,0,0,0-2.2-.43l-5.59,1.75a4,4,0,0,1-2.38-.16A30.39,30.39,0,0,0,199.2,341.13ZM175.36,356a10.72,10.72,0,0,1,4.91-3.55c6.23-2.5,14.78-1.6,19.1,2a8.31,8.31,0,0,1,1.46,1.55,10.62,10.62,0,0,1-4.91,3.57c-6.23,2.49-14.79,1.6-19.11-2A7.77,7.77,0,0,1,175.36,356Z" style="fill:#9615DB"></path><path d="M199.2,341.13a1.56,1.56,0,0,1-1.07-1.62l.33-2.73a1.26,1.26,0,0,0-1.12-1.4l-7.18-.75a2,2,0,0,0-1.86,1l-1.43,2.79a2.5,2.5,0,0,1-1.86,1.21c-1.25.1-2.5.25-3.72.46a3.67,3.67,0,0,1-2.32-.46l-3.87-2.57a2.73,2.73,0,0,0-2.25-.23l-5.74,2.3a.85.85,0,0,0-.6.74h0v.07h0v5.87h0a.94.94,0,0,0,.28.64l.34.36a3,3,0,0,1-1.58.49L159,347a1.77,1.77,0,0,0-1.66,1.17l-1,3.18a1.29,1.29,0,0,0,0,.39h0v5.93h0a1.09,1.09,0,0,0,.93,1l5.09.87-2,1a.81.81,0,0,0-.52.72h0v5.94h0a.89.89,0,0,0,.35.65l3.67,3.06a2.64,2.64,0,0,0,2.21.43l5.59-1.75a3.92,3.92,0,0,1,2.37.15,28.08,28.08,0,0,0,3,1.11,1.55,1.55,0,0,1,.74.52v4h0a1.25,1.25,0,0,0,1.12,1.23l7.19.75a2,2,0,0,0,1.85-1l1.43-2.79a2.5,2.5,0,0,1,1.86-1.21c1.25-.1,2.5-.25,3.72-.47a3.68,3.68,0,0,1,2.32.47l3.87,2.57a2.73,2.73,0,0,0,2.25.23l5.75-2.3a.84.84,0,0,0,.59-.77h0v-5.92h0a1,1,0,0,0-.28-.64l-.33-.35a3,3,0,0,1,1.58-.49l6.56.26a1.75,1.75,0,0,0,1.66-1.16l1-3.18a1.12,1.12,0,0,0,0-.36h0v-5.91l0,0a1.05,1.05,0,0,0-.91-1.1l-5.09-.87,2-1a.8.8,0,0,0,.51-.73h0v-5.9h0a.88.88,0,0,0-.36-.68l-3.67-3.06a2.62,2.62,0,0,0-2.2-.43l-5.59,1.75a4,4,0,0,1-2.38-.16A30.39,30.39,0,0,0,199.2,341.13ZM175.36,356a10.72,10.72,0,0,1,4.91-3.55c6.23-2.5,14.78-1.6,19.1,2a8.31,8.31,0,0,1,1.46,1.55,10.62,10.62,0,0,1-4.91,3.57c-6.23,2.49-14.79,1.6-19.11-2A7.77,7.77,0,0,1,175.36,356Z" style="fill:#fff;opacity:0.2"></path><path d="M165,355.34a2.18,2.18,0,0,0-1.53-1.46l-6.25-1.07a1.06,1.06,0,0,1-.92-1v5.86a1.09,1.09,0,0,0,.93,1l5.08.87,2.64-1.32a1.24,1.24,0,0,0,.52-1.69A9,9,0,0,1,165,355.34Zm1.52-9.54h0a1,1,0,0,0,.28.65l.34.35a2.32,2.32,0,0,0,.54-.41,13.36,13.36,0,0,1,1.57-1.4,1.11,1.11,0,0,0,.16-1.69l-2.61-2.77a.94.94,0,0,1-.28-.64Z" style="opacity:0.1"></path><path d="M180.27,346.54c-5.38,2.16-7.27,6.12-4.9,9.48a10.54,10.54,0,0,1,4.89-3.56c6.24-2.49,14.79-1.61,19.11,2a8.31,8.31,0,0,1,1.46,1.55c1.66-2.38,1.28-5.19-1.45-7.46C195.05,344.94,186.5,344.05,180.27,346.54Z" style="opacity:0.1"></path><path d="M189.91,367a2.11,2.11,0,0,0-.59.69l-1.44,2.79a2,2,0,0,1-1.06.89v5.91a1.94,1.94,0,0,0,1.06-.88l1.43-2.79a2.09,2.09,0,0,1,.62-.68Zm19.77-.78h0a.83.83,0,0,1-.6.77l-5.74,2.3a2.53,2.53,0,0,1-1.5.06v5.92a2.74,2.74,0,0,0,1.51-.06l5.75-2.31a.81.81,0,0,0,.59-.76Zm-38.14-2.48L166,365.47a2.44,2.44,0,0,1-1.39,0v5.9a2.58,2.58,0,0,0,1.4,0l5.52-1.73Zm48.38-9.35a2.21,2.21,0,0,1-.06.34l-1,3.18a1.77,1.77,0,0,1-1.66,1.17l-6.57-.27a2.74,2.74,0,0,0-1,.21v5.92a2.63,2.63,0,0,1,1-.21l6.57.26a1.78,1.78,0,0,0,1.66-1.16l1-3.18a.91.91,0,0,0,.06-.36Zm-3.51-9.58a.53.53,0,0,1,0,.2.64.64,0,0,1-.2.3.94.94,0,0,1-.29.21l-4.61,2.31a1.26,1.26,0,0,0-.28.2,1.24,1.24,0,0,0-.31.48,1.43,1.43,0,0,0-.07.46l0,.24a2,2,0,0,0,.11.32,8.39,8.39,0,0,1,.47,1.23,2.17,2.17,0,0,0,1.53,1.48l1.15.19,2-1a.84.84,0,0,0,.51-.74h0Z" style="fill:#9615DB"></path><path d="M189.91,367a2.11,2.11,0,0,0-.59.69l-1.44,2.79a2,2,0,0,1-1.06.89v5.91a1.94,1.94,0,0,0,1.06-.88l1.43-2.79a2.09,2.09,0,0,1,.62-.68Zm19.77-.78h0a.83.83,0,0,1-.6.77l-5.74,2.3a2.53,2.53,0,0,1-1.5.06v5.92a2.74,2.74,0,0,0,1.51-.06l5.75-2.31a.81.81,0,0,0,.59-.76Zm-38.14-2.48L166,365.47a2.44,2.44,0,0,1-1.39,0v5.9a2.58,2.58,0,0,0,1.4,0l5.52-1.73Zm48.38-9.35a2.21,2.21,0,0,1-.06.34l-1,3.18a1.77,1.77,0,0,1-1.66,1.17l-6.57-.27a2.74,2.74,0,0,0-1,.21v5.92a2.63,2.63,0,0,1,1-.21l6.57.26a1.78,1.78,0,0,0,1.66-1.16l1-3.18a.91.91,0,0,0,.06-.36Zm-3.51-9.58a.53.53,0,0,1,0,.2.64.64,0,0,1-.2.3.94.94,0,0,1-.29.21l-4.61,2.31a1.26,1.26,0,0,0-.28.2,1.24,1.24,0,0,0-.31.48,1.43,1.43,0,0,0-.07.46l0,.24a2,2,0,0,0,.11.32,8.39,8.39,0,0,1,.47,1.23,2.17,2.17,0,0,0,1.53,1.48l1.15.19,2-1a.84.84,0,0,0,.51-.74h0Z" style="fill:#fff;opacity:0.7000000000000001"></path><path d="M210.17,340.64l-5.59,1.75a4,4,0,0,1-2.38-.16,30.39,30.39,0,0,0-3-1.1,1.56,1.56,0,0,1-1.07-1.62l.33-2.73a1.26,1.26,0,0,0-1.12-1.4l-7.18-.75a2,2,0,0,0-1.86,1l-1.43,2.79a2.5,2.5,0,0,1-1.86,1.21c-1.25.1-2.5.25-3.72.46a3.67,3.67,0,0,1-2.32-.46l-3.87-2.57a2.73,2.73,0,0,0-2.25-.23l-5.74,2.3a.82.82,0,0,0-.32,1.41l2.61,2.77a1.1,1.1,0,0,1-.16,1.68,15.44,15.44,0,0,0-1.57,1.4,3.17,3.17,0,0,1-2.12.91L159,347a1.77,1.77,0,0,0-1.66,1.17l-1,3.18a1.09,1.09,0,0,0,.88,1.43l6.25,1.07a2.14,2.14,0,0,1,1.52,1.47,10.46,10.46,0,0,0,.47,1.24,1.24,1.24,0,0,1-.52,1.69l-4.61,2.32a.77.77,0,0,0-.16,1.39l3.66,3.05a2.64,2.64,0,0,0,2.21.44l5.59-1.76a4,4,0,0,1,2.38.16,29.3,29.3,0,0,0,3,1.1,1.57,1.57,0,0,1,1.08,1.62l-.33,2.73a1.24,1.24,0,0,0,1.11,1.4l7.19.75a2,2,0,0,0,1.85-1l1.43-2.79a2.54,2.54,0,0,1,1.86-1.21c1.25-.09,2.5-.25,3.72-.46a3.66,3.66,0,0,1,2.32.46l3.87,2.57a2.73,2.73,0,0,0,2.25.23l5.75-2.3a.82.82,0,0,0,.31-1.41l-2.61-2.77a1.11,1.11,0,0,1,.16-1.68,15.44,15.44,0,0,0,1.57-1.4,3.2,3.2,0,0,1,2.13-.91l6.57.27a1.76,1.76,0,0,0,1.65-1.17l1-3.18a1.08,1.08,0,0,0-.88-1.43l-6.24-1.07a2.15,2.15,0,0,1-1.53-1.46,8.62,8.62,0,0,0-.47-1.25,1.25,1.25,0,0,1,.53-1.69l4.61-2.31a.78.78,0,0,0,.16-1.39l-3.67-3.06A2.62,2.62,0,0,0,210.17,340.64Zm-10.8,7.9c4.32,3.6,2.78,8.53-3.45,11s-14.79,1.6-19.11-2-2.77-8.53,3.46-11S195.05,344.94,199.37,348.54Z" style="fill:#9615DB"></path><g style="opacity:0.55"><path d="M210.17,340.64l-5.59,1.75a4,4,0,0,1-2.38-.16,30.39,30.39,0,0,0-3-1.1,1.56,1.56,0,0,1-1.07-1.62l.33-2.73a1.26,1.26,0,0,0-1.12-1.4l-7.18-.75a2,2,0,0,0-1.86,1l-1.43,2.79a2.5,2.5,0,0,1-1.86,1.21c-1.25.1-2.5.25-3.72.46a3.67,3.67,0,0,1-2.32-.46l-3.87-2.57a2.73,2.73,0,0,0-2.25-.23l-5.74,2.3a.82.82,0,0,0-.32,1.41l2.61,2.77a1.1,1.1,0,0,1-.16,1.68,15.44,15.44,0,0,0-1.57,1.4,3.17,3.17,0,0,1-2.12.91L159,347a1.77,1.77,0,0,0-1.66,1.17l-1,3.18a1.09,1.09,0,0,0,.88,1.43l6.25,1.07a2.14,2.14,0,0,1,1.52,1.47,10.46,10.46,0,0,0,.47,1.24,1.24,1.24,0,0,1-.52,1.69l-4.61,2.32a.77.77,0,0,0-.16,1.39l3.66,3.05a2.64,2.64,0,0,0,2.21.44l5.59-1.76a4,4,0,0,1,2.38.16,29.3,29.3,0,0,0,3,1.1,1.57,1.57,0,0,1,1.08,1.62l-.33,2.73a1.24,1.24,0,0,0,1.11,1.4l7.19.75a2,2,0,0,0,1.85-1l1.43-2.79a2.54,2.54,0,0,1,1.86-1.21c1.25-.09,2.5-.25,3.72-.46a3.66,3.66,0,0,1,2.32.46l3.87,2.57a2.73,2.73,0,0,0,2.25.23l5.75-2.3a.82.82,0,0,0,.31-1.41l-2.61-2.77a1.11,1.11,0,0,1,.16-1.68,15.44,15.44,0,0,0,1.57-1.4,3.2,3.2,0,0,1,2.13-.91l6.57.27a1.76,1.76,0,0,0,1.65-1.17l1-3.18a1.08,1.08,0,0,0-.88-1.43l-6.24-1.07a2.15,2.15,0,0,1-1.53-1.46,8.62,8.62,0,0,0-.47-1.25,1.25,1.25,0,0,1,.53-1.69l4.61-2.31a.78.78,0,0,0,.16-1.39l-3.67-3.06A2.62,2.62,0,0,0,210.17,340.64Zm-10.8,7.9c4.32,3.6,2.78,8.53-3.45,11s-14.79,1.6-19.11-2-2.77-8.53,3.46-11S195.05,344.94,199.37,348.54Z" style="fill:#fff"></path><path d="M186.18,371.85H186l-7.18-.75a1.61,1.61,0,0,1-1.44-1.8l.33-2.73a1.2,1.2,0,0,0-.82-1.24,29.39,29.39,0,0,1-3-1.11,3.63,3.63,0,0,0-2.13-.15l-5.59,1.76a3,3,0,0,1-2.53-.51l-3.67-3.05a1.21,1.21,0,0,1-.49-1.06,1.22,1.22,0,0,1,.72-.92l4.61-2.32a.88.88,0,0,0,.36-1.22,9.21,9.21,0,0,1-.49-1.29,1.79,1.79,0,0,0-1.24-1.22l-6.25-1.06a1.46,1.46,0,0,1-1.16-1.9l1-3.17a2.14,2.14,0,0,1,2-1.42l6.57.26a2.78,2.78,0,0,0,1.85-.79,17.33,17.33,0,0,1,1.61-1.44.83.83,0,0,0,.34-.58.74.74,0,0,0-.22-.57l-2.61-2.78a1.16,1.16,0,0,1,.44-2l5.75-2.3a3.08,3.08,0,0,1,2.58.26l3.87,2.57a3.32,3.32,0,0,0,2.06.41,37.66,37.66,0,0,1,3.75-.46,2.2,2.2,0,0,0,1.57-1l1.43-2.79a2.37,2.37,0,0,1,2.21-1.2l7.19.75a1.62,1.62,0,0,1,1.43,1.8l-.33,2.73a1.22,1.22,0,0,0,.83,1.24,30.1,30.1,0,0,1,3,1.12,3.63,3.63,0,0,0,2.13.14l5.59-1.75a3,3,0,0,1,2.54.5l3.67,3.05a1.21,1.21,0,0,1,.48,1.06,1.22,1.22,0,0,1-.71.93l-4.61,2.31a.9.9,0,0,0-.37,1.22,8.22,8.22,0,0,1,.49,1.3,1.79,1.79,0,0,0,1.24,1.21L219,353a1.45,1.45,0,0,1,1,.67,1.48,1.48,0,0,1,.13,1.22l-1,3.18a2.1,2.1,0,0,1-2,1.41l-6.57-.26a2.79,2.79,0,0,0-1.85.8,16.2,16.2,0,0,1-1.61,1.43.8.8,0,0,0-.33.58.73.73,0,0,0,.21.58l2.61,2.77a1.26,1.26,0,0,1,.36,1.12,1.24,1.24,0,0,1-.8.86l-5.75,2.3a3.08,3.08,0,0,1-2.58-.26L197,366.78a3.32,3.32,0,0,0-2.06-.41c-1.23.21-2.49.37-3.76.47a2.14,2.14,0,0,0-1.57,1l-1.43,2.78A2.37,2.37,0,0,1,186.18,371.85Zm-13.68-8.6a4.26,4.26,0,0,1,1.63.3,29.34,29.34,0,0,0,3,1.09,1.92,1.92,0,0,1,1.32,2l-.33,2.73a.89.89,0,0,0,.8,1l7.18.75a1.62,1.62,0,0,0,1.5-.81l1.44-2.79a2.9,2.9,0,0,1,2.15-1.41,37,37,0,0,0,3.68-.45,4,4,0,0,1,2.58.52l3.87,2.56a2.35,2.35,0,0,0,1.92.2l5.75-2.3a.54.54,0,0,0,.36-.36.55.55,0,0,0-.18-.47L206.52,363a1.47,1.47,0,0,1-.41-1.11,1.56,1.56,0,0,1,.61-1.09,15.94,15.94,0,0,0,1.54-1.37,3.54,3.54,0,0,1,2.39-1l6.57.26a1.39,1.39,0,0,0,1.3-.92l1-3.17a.79.79,0,0,0-.06-.64.76.76,0,0,0-.54-.34l-6.25-1.07a2.46,2.46,0,0,1-1.8-1.71,9.75,9.75,0,0,0-.45-1.2,1.59,1.59,0,0,1,.69-2.16l4.61-2.31c.19-.1.31-.23.32-.37a.5.5,0,0,0-.23-.43l-3.67-3a2.23,2.23,0,0,0-1.87-.37l-5.59,1.75a4.29,4.29,0,0,1-2.62-.17,31.25,31.25,0,0,0-3-1.09,1.93,1.93,0,0,1-1.33-2l.33-2.73a.86.86,0,0,0-.19-.66.9.9,0,0,0-.61-.34l-7.18-.75a1.66,1.66,0,0,0-1.5.81l-1.43,2.79A2.89,2.89,0,0,1,185,340c-1.26.09-2.5.25-3.69.45a4,4,0,0,1-2.58-.51l-3.86-2.57a2.35,2.35,0,0,0-1.92-.2l-5.75,2.3a.53.53,0,0,0-.37.36.55.55,0,0,0,.18.47l2.61,2.78a1.43,1.43,0,0,1,.41,1.11,1.51,1.51,0,0,1-.61,1.09,15.8,15.8,0,0,0-1.53,1.37,3.59,3.59,0,0,1-2.4,1l-6.57-.27a1.4,1.4,0,0,0-1.3.92l-1,3.18a.73.73,0,0,0,.6,1l6.25,1.07a2.51,2.51,0,0,1,1.81,1.72,7.83,7.83,0,0,0,.45,1.19,1.6,1.6,0,0,1-.69,2.16l-4.61,2.32a.5.5,0,0,0-.33.36.52.52,0,0,0,.23.43l3.67,3.06a2.27,2.27,0,0,0,1.87.36l5.59-1.75A3.46,3.46,0,0,1,172.5,363.25Zm15.62-1.92c-4.44,0-8.81-1.21-11.54-3.48-1.93-1.61-2.83-3.59-2.51-5.57.39-2.47,2.6-4.68,6.06-6.07,6.33-2.53,15.07-1.61,19.47,2.05h0c1.94,1.61,2.83,3.59,2.52,5.57-.39,2.47-2.6,4.68-6.07,6.07A21.55,21.55,0,0,1,188.12,361.33Zm0-15.85a21.14,21.14,0,0,0-7.68,1.39c-3.23,1.3-5.28,3.31-5.63,5.53-.27,1.71.54,3.46,2.27,4.9,4.23,3.52,12.63,4.39,18.74,1.94,3.23-1.3,5.28-3.31,5.63-5.52.27-1.72-.53-3.46-2.27-4.91h0C196.54,346.65,192.35,345.48,188.08,345.48Z" style="fill:#fff"></path></g></g><g id="freepik--gear--inject-4"><path d="M338.8,338.63a1.56,1.56,0,0,1-1.07-1.62l.33-2.73a1.26,1.26,0,0,0-1.12-1.4l-7.18-.75a2,2,0,0,0-1.86,1l-1.43,2.79a2.5,2.5,0,0,1-1.86,1.21c-1.25.1-2.5.25-3.72.46a3.61,3.61,0,0,1-2.32-.46l-3.87-2.57a2.73,2.73,0,0,0-2.25-.23l-5.74,2.3a.84.84,0,0,0-.6.74h0v.07h0v5.87h0a1,1,0,0,0,.28.65l.34.35a3,3,0,0,1-1.59.49l-6.56-.26a1.75,1.75,0,0,0-1.66,1.16l-1,3.18a1.29,1.29,0,0,0,0,.39h0v5.93h0a1.08,1.08,0,0,0,.93,1l5.09.87-2,1a.81.81,0,0,0-.52.72h0v5.94h0a.87.87,0,0,0,.35.65l3.67,3.06a2.62,2.62,0,0,0,2.2.43l5.6-1.75a3.92,3.92,0,0,1,2.37.16,30.39,30.39,0,0,0,3,1.1,1.55,1.55,0,0,1,.74.52v4h0a1.24,1.24,0,0,0,1.12,1.22l7.19.75a2,2,0,0,0,1.85-1l1.43-2.79a2.5,2.5,0,0,1,1.86-1.21c1.25-.1,2.5-.25,3.72-.46a3.61,3.61,0,0,1,2.32.46l3.87,2.57a2.73,2.73,0,0,0,2.25.23l5.75-2.3a.84.84,0,0,0,.59-.77h0v-5.92h0a.92.92,0,0,0-.28-.63l-.33-.36a3,3,0,0,1,1.58-.49l6.56.27a1.77,1.77,0,0,0,1.66-1.17l1-3.18a1.12,1.12,0,0,0,.05-.36h0v-5.9h0a1.06,1.06,0,0,0-.91-1.1l-5.09-.87,2-1a.79.79,0,0,0,.51-.73h0v-5.9h0a.84.84,0,0,0-.35-.68L352,338.57a2.62,2.62,0,0,0-2.2-.43l-5.59,1.75a3.88,3.88,0,0,1-2.38-.16A30.39,30.39,0,0,0,338.8,338.63ZM315,353.51a10.72,10.72,0,0,1,4.91-3.55c6.23-2.49,14.78-1.6,19.1,2a8.28,8.28,0,0,1,1.46,1.54,10.62,10.62,0,0,1-4.91,3.57c-6.23,2.5-14.79,1.6-19.11-2A8.09,8.09,0,0,1,315,353.51Z" style="fill:#9615DB"></path><path d="M338.8,338.63a1.56,1.56,0,0,1-1.07-1.62l.33-2.73a1.26,1.26,0,0,0-1.12-1.4l-7.18-.75a2,2,0,0,0-1.86,1l-1.43,2.79a2.5,2.5,0,0,1-1.86,1.21c-1.25.1-2.5.25-3.72.46a3.61,3.61,0,0,1-2.32-.46l-3.87-2.57a2.73,2.73,0,0,0-2.25-.23l-5.74,2.3a.84.84,0,0,0-.6.74h0v.07h0v5.87h0a1,1,0,0,0,.28.65l.34.35a3,3,0,0,1-1.59.49l-6.56-.26a1.75,1.75,0,0,0-1.66,1.16l-1,3.18a1.29,1.29,0,0,0,0,.39h0v5.93h0a1.08,1.08,0,0,0,.93,1l5.09.87-2,1a.81.81,0,0,0-.52.72h0v5.94h0a.87.87,0,0,0,.35.65l3.67,3.06a2.62,2.62,0,0,0,2.2.43l5.6-1.75a3.92,3.92,0,0,1,2.37.16,30.39,30.39,0,0,0,3,1.1,1.55,1.55,0,0,1,.74.52v4h0a1.24,1.24,0,0,0,1.12,1.22l7.19.75a2,2,0,0,0,1.85-1l1.43-2.79a2.5,2.5,0,0,1,1.86-1.21c1.25-.1,2.5-.25,3.72-.46a3.61,3.61,0,0,1,2.32.46l3.87,2.57a2.73,2.73,0,0,0,2.25.23l5.75-2.3a.84.84,0,0,0,.59-.77h0v-5.92h0a.92.92,0,0,0-.28-.63l-.33-.36a3,3,0,0,1,1.58-.49l6.56.27a1.77,1.77,0,0,0,1.66-1.17l1-3.18a1.12,1.12,0,0,0,.05-.36h0v-5.9h0a1.06,1.06,0,0,0-.91-1.1l-5.09-.87,2-1a.79.79,0,0,0,.51-.73h0v-5.9h0a.84.84,0,0,0-.35-.68L352,338.57a2.62,2.62,0,0,0-2.2-.43l-5.59,1.75a3.88,3.88,0,0,1-2.38-.16A30.39,30.39,0,0,0,338.8,338.63ZM315,353.51a10.72,10.72,0,0,1,4.91-3.55c6.23-2.49,14.78-1.6,19.1,2a8.28,8.28,0,0,1,1.46,1.54,10.62,10.62,0,0,1-4.91,3.57c-6.23,2.5-14.79,1.6-19.11-2A8.09,8.09,0,0,1,315,353.51Z" style="fill:#fff;opacity:0.2"></path><path d="M304.58,352.85a2.18,2.18,0,0,0-1.53-1.47l-6.25-1.06a1.06,1.06,0,0,1-.92-1v5.86a1.08,1.08,0,0,0,.92,1l5.09.87,2.64-1.32a1.24,1.24,0,0,0,.52-1.69A7.79,7.79,0,0,1,304.58,352.85Zm1.52-9.54h0a1,1,0,0,0,.28.65l.34.36a2.66,2.66,0,0,0,.54-.42,13.36,13.36,0,0,1,1.57-1.4,1.11,1.11,0,0,0,.16-1.69L306.39,338a.94.94,0,0,1-.28-.64Z" style="opacity:0.1"></path><path d="M319.87,344.05c-5.38,2.15-7.27,6.12-4.9,9.47a10.54,10.54,0,0,1,4.89-3.56c6.24-2.49,14.79-1.6,19.11,2a8,8,0,0,1,1.46,1.54c1.66-2.38,1.27-5.19-1.45-7.46C334.65,342.44,326.1,341.55,319.87,344.05Z" style="opacity:0.1"></path><path d="M329.51,364.5a2.11,2.11,0,0,0-.59.69L327.48,368a2,2,0,0,1-1.06.89v5.92a2,2,0,0,0,1.06-.89l1.43-2.79a2.2,2.2,0,0,1,.62-.68Zm19.77-.78h0a.83.83,0,0,1-.6.77l-5.74,2.31a2.61,2.61,0,0,1-1.5,0v5.92a2.74,2.74,0,0,0,1.51-.06l5.75-2.3a.83.83,0,0,0,.59-.77Zm-38.14-2.48L305.62,363a2.44,2.44,0,0,1-1.39,0v5.9a2.58,2.58,0,0,0,1.4,0l5.52-1.73Zm48.38-9.35a2.33,2.33,0,0,1-.06.35l-1,3.17a1.77,1.77,0,0,1-1.66,1.17l-6.57-.26a2.72,2.72,0,0,0-1,.2v5.92a2.63,2.63,0,0,1,1-.21l6.57.26a1.77,1.77,0,0,0,1.66-1.16l1-3.18a.91.91,0,0,0,.06-.36ZM356,342.31a.49.49,0,0,1-.05.2.72.72,0,0,1-.2.31,1.13,1.13,0,0,1-.29.2l-4.61,2.32a1,1,0,0,0-.28.19,1.21,1.21,0,0,0-.31.49,1.35,1.35,0,0,0-.07.46l0,.23a2,2,0,0,0,.11.32,8.85,8.85,0,0,1,.47,1.23,2.14,2.14,0,0,0,1.53,1.48l1.15.19,2-1a.86.86,0,0,0,.51-.74h0Z" style="fill:#9615DB"></path><path d="M329.51,364.5a2.11,2.11,0,0,0-.59.69L327.48,368a2,2,0,0,1-1.06.89v5.92a2,2,0,0,0,1.06-.89l1.43-2.79a2.2,2.2,0,0,1,.62-.68Zm19.77-.78h0a.83.83,0,0,1-.6.77l-5.74,2.31a2.61,2.61,0,0,1-1.5,0v5.92a2.74,2.74,0,0,0,1.51-.06l5.75-2.3a.83.83,0,0,0,.59-.77Zm-38.14-2.48L305.62,363a2.44,2.44,0,0,1-1.39,0v5.9a2.58,2.58,0,0,0,1.4,0l5.52-1.73Zm48.38-9.35a2.33,2.33,0,0,1-.06.35l-1,3.17a1.77,1.77,0,0,1-1.66,1.17l-6.57-.26a2.72,2.72,0,0,0-1,.2v5.92a2.63,2.63,0,0,1,1-.21l6.57.26a1.77,1.77,0,0,0,1.66-1.16l1-3.18a.91.91,0,0,0,.06-.36ZM356,342.31a.49.49,0,0,1-.05.2.72.72,0,0,1-.2.31,1.13,1.13,0,0,1-.29.2l-4.61,2.32a1,1,0,0,0-.28.19,1.21,1.21,0,0,0-.31.49,1.35,1.35,0,0,0-.07.46l0,.23a2,2,0,0,0,.11.32,8.85,8.85,0,0,1,.47,1.23,2.14,2.14,0,0,0,1.53,1.48l1.15.19,2-1a.86.86,0,0,0,.51-.74h0Z" style="fill:#fff;opacity:0.7000000000000001"></path><path d="M349.77,338.14l-5.59,1.75a3.88,3.88,0,0,1-2.38-.16,30.39,30.39,0,0,0-3-1.1,1.56,1.56,0,0,1-1.07-1.62l.33-2.73a1.26,1.26,0,0,0-1.12-1.4l-7.18-.75a2,2,0,0,0-1.86,1l-1.43,2.79a2.5,2.5,0,0,1-1.86,1.21c-1.25.1-2.5.25-3.72.46a3.61,3.61,0,0,1-2.32-.46l-3.87-2.57a2.73,2.73,0,0,0-2.25-.23l-5.74,2.3a.82.82,0,0,0-.32,1.41l2.61,2.77a1.1,1.1,0,0,1-.16,1.68,15.5,15.5,0,0,0-1.57,1.41,3.21,3.21,0,0,1-2.13.9l-6.56-.26a1.75,1.75,0,0,0-1.66,1.16l-1,3.18a1.09,1.09,0,0,0,.88,1.43l6.25,1.07a2.14,2.14,0,0,1,1.52,1.47,10.46,10.46,0,0,0,.47,1.24,1.24,1.24,0,0,1-.52,1.69l-4.61,2.32a.77.77,0,0,0-.16,1.39l3.66,3.05a2.64,2.64,0,0,0,2.21.44l5.59-1.76a4,4,0,0,1,2.38.16,29.3,29.3,0,0,0,3,1.1,1.58,1.58,0,0,1,1.08,1.63l-.33,2.73a1.25,1.25,0,0,0,1.11,1.4l7.19.75a2,2,0,0,0,1.85-1l1.43-2.79a2.55,2.55,0,0,1,1.86-1.21c1.25-.09,2.5-.25,3.72-.46a3.66,3.66,0,0,1,2.32.46l3.87,2.57a2.69,2.69,0,0,0,2.25.23l5.75-2.3a.81.81,0,0,0,.31-1.4l-2.61-2.78a1.11,1.11,0,0,1,.16-1.68,15.44,15.44,0,0,0,1.57-1.4,3.24,3.24,0,0,1,2.13-.91l6.57.27a1.76,1.76,0,0,0,1.65-1.17l1-3.18a1.08,1.08,0,0,0-.88-1.43l-6.25-1.07a2.15,2.15,0,0,1-1.52-1.46,8.51,8.51,0,0,0-.47-1.24,1.26,1.26,0,0,1,.53-1.7l4.61-2.31a.78.78,0,0,0,.16-1.39L352,338.57A2.62,2.62,0,0,0,349.77,338.14ZM339,346c4.32,3.6,2.78,8.53-3.45,11s-14.79,1.6-19.11-2-2.77-8.54,3.46-11S334.65,342.44,339,346Z" style="fill:#9615DB"></path><g style="opacity:0.55"><path d="M349.77,338.14l-5.59,1.75a3.88,3.88,0,0,1-2.38-.16,30.39,30.39,0,0,0-3-1.1,1.56,1.56,0,0,1-1.07-1.62l.33-2.73a1.26,1.26,0,0,0-1.12-1.4l-7.18-.75a2,2,0,0,0-1.86,1l-1.43,2.79a2.5,2.5,0,0,1-1.86,1.21c-1.25.1-2.5.25-3.72.46a3.61,3.61,0,0,1-2.32-.46l-3.87-2.57a2.73,2.73,0,0,0-2.25-.23l-5.74,2.3a.82.82,0,0,0-.32,1.41l2.61,2.77a1.1,1.1,0,0,1-.16,1.68,15.5,15.5,0,0,0-1.57,1.41,3.21,3.21,0,0,1-2.13.9l-6.56-.26a1.75,1.75,0,0,0-1.66,1.16l-1,3.18a1.09,1.09,0,0,0,.88,1.43l6.25,1.07a2.14,2.14,0,0,1,1.52,1.47,10.46,10.46,0,0,0,.47,1.24,1.24,1.24,0,0,1-.52,1.69l-4.61,2.32a.77.77,0,0,0-.16,1.39l3.66,3.05a2.64,2.64,0,0,0,2.21.44l5.59-1.76a4,4,0,0,1,2.38.16,29.3,29.3,0,0,0,3,1.1,1.58,1.58,0,0,1,1.08,1.63l-.33,2.73a1.25,1.25,0,0,0,1.11,1.4l7.19.75a2,2,0,0,0,1.85-1l1.43-2.79a2.55,2.55,0,0,1,1.86-1.21c1.25-.09,2.5-.25,3.72-.46a3.66,3.66,0,0,1,2.32.46l3.87,2.57a2.69,2.69,0,0,0,2.25.23l5.75-2.3a.81.81,0,0,0,.31-1.4l-2.61-2.78a1.11,1.11,0,0,1,.16-1.68,15.44,15.44,0,0,0,1.57-1.4,3.24,3.24,0,0,1,2.13-.91l6.57.27a1.76,1.76,0,0,0,1.65-1.17l1-3.18a1.08,1.08,0,0,0-.88-1.43l-6.25-1.07a2.15,2.15,0,0,1-1.52-1.46,8.51,8.51,0,0,0-.47-1.24,1.26,1.26,0,0,1,.53-1.7l4.61-2.31a.78.78,0,0,0,.16-1.39L352,338.57A2.62,2.62,0,0,0,349.77,338.14ZM339,346c4.32,3.6,2.78,8.53-3.45,11s-14.79,1.6-19.11-2-2.77-8.54,3.46-11S334.65,342.44,339,346Z" style="fill:#fff"></path><path d="M325.78,369.35h-.19l-7.18-.75a1.58,1.58,0,0,1-1.1-.6,1.61,1.61,0,0,1-.34-1.2l.33-2.73a1.18,1.18,0,0,0-.82-1.23,31.92,31.92,0,0,1-3-1.12,3.55,3.55,0,0,0-2.13-.14l-5.59,1.75a3,3,0,0,1-2.53-.5l-3.67-3.06a1.12,1.12,0,0,1,.23-2l4.61-2.32a.89.89,0,0,0,.36-1.22,8.76,8.76,0,0,1-.49-1.29,1.77,1.77,0,0,0-1.24-1.21l-6.25-1.07a1.46,1.46,0,0,1-1.16-1.9l1-3.17a2.09,2.09,0,0,1,2-1.42l6.57.26a2.72,2.72,0,0,0,1.85-.79,16.13,16.13,0,0,1,1.61-1.44.83.83,0,0,0,.34-.58.75.75,0,0,0-.22-.57l-2.61-2.78a1.25,1.25,0,0,1-.36-1.11,1.28,1.28,0,0,1,.8-.87l5.75-2.3a3,3,0,0,1,2.58.27l3.87,2.56a3.3,3.3,0,0,0,2.06.41,37.66,37.66,0,0,1,3.75-.46,2.17,2.17,0,0,0,1.57-1l1.43-2.79a2.38,2.38,0,0,1,2.21-1.2l7.19.75a1.62,1.62,0,0,1,1.43,1.8l-.33,2.73a1.22,1.22,0,0,0,.83,1.24,29.22,29.22,0,0,1,3,1.12,3.63,3.63,0,0,0,2.13.14l5.59-1.75a3,3,0,0,1,2.54.5l3.67,3.05a1.21,1.21,0,0,1,.48,1.06,1.22,1.22,0,0,1-.71.93L351,345.65a.89.89,0,0,0-.37,1.22,8.61,8.61,0,0,1,.49,1.3,1.78,1.78,0,0,0,1.25,1.21l6.24,1.07a1.45,1.45,0,0,1,1,.67,1.48,1.48,0,0,1,.13,1.22l-1,3.18a2.13,2.13,0,0,1-2,1.42l-6.57-.27a2.82,2.82,0,0,0-1.85.8,15.93,15.93,0,0,1-1.61,1.43.85.85,0,0,0-.34.58.77.77,0,0,0,.22.58l2.61,2.77a1.26,1.26,0,0,1,.36,1.12,1.24,1.24,0,0,1-.8.86l-5.75,2.31a3.12,3.12,0,0,1-2.58-.27l-3.86-2.57a3.33,3.33,0,0,0-2.07-.41c-1.22.22-2.48.37-3.75.47a2.14,2.14,0,0,0-1.57,1l-1.43,2.79A2.38,2.38,0,0,1,325.78,369.35Zm-13.68-8.6a4.42,4.42,0,0,1,1.63.3,27.1,27.1,0,0,0,3,1.09,1.93,1.93,0,0,1,1.32,2l-.33,2.73a.9.9,0,0,0,.19.67.87.87,0,0,0,.61.33l7.18.75a1.65,1.65,0,0,0,1.5-.81L328.6,365a2.86,2.86,0,0,1,2.15-1.4c1.24-.1,2.48-.25,3.68-.46a4,4,0,0,1,2.58.52l3.87,2.56a2.35,2.35,0,0,0,1.92.2l5.74-2.3a.53.53,0,0,0,.37-.36.55.55,0,0,0-.18-.47l-2.61-2.77a1.49,1.49,0,0,1-.41-1.12,1.56,1.56,0,0,1,.61-1.09,15.94,15.94,0,0,0,1.54-1.37,3.49,3.49,0,0,1,2.39-1l6.57.26a1.37,1.37,0,0,0,1.3-.92l1-3.17a.76.76,0,0,0-.06-.63.74.74,0,0,0-.54-.35l-6.25-1.07a2.45,2.45,0,0,1-1.8-1.71,7.89,7.89,0,0,0-.46-1.19,1.61,1.61,0,0,1,.7-2.17l4.61-2.31c.19-.1.31-.23.32-.37a.5.5,0,0,0-.23-.43l-3.67-3a2.23,2.23,0,0,0-1.87-.37h0l-5.59,1.75a4.26,4.26,0,0,1-2.63-.17A30.07,30.07,0,0,0,338.7,339a1.92,1.92,0,0,1-1.33-2l.33-2.73a.85.85,0,0,0-.19-.67.9.9,0,0,0-.61-.34l-7.18-.75a1.64,1.64,0,0,0-1.5.82l-1.43,2.78a2.86,2.86,0,0,1-2.15,1.41A36.1,36.1,0,0,0,321,338a4,4,0,0,1-2.58-.52l-3.86-2.57a2.36,2.36,0,0,0-1.92-.2l-5.75,2.3c-.21.09-.34.21-.37.36a.54.54,0,0,0,.18.47l2.61,2.78a1.44,1.44,0,0,1,.41,1.12,1.53,1.53,0,0,1-.61,1.09,13.64,13.64,0,0,0-1.53,1.37,3.58,3.58,0,0,1-2.4,1l-6.57-.27a1.41,1.41,0,0,0-1.3.92l-1,3.18a.73.73,0,0,0,.07.63.76.76,0,0,0,.53.34l6.25,1.07a2.51,2.51,0,0,1,1.81,1.72,7.83,7.83,0,0,0,.45,1.19,1.6,1.6,0,0,1-.69,2.16l-4.61,2.32a.5.5,0,0,0-.33.36.52.52,0,0,0,.23.43l3.67,3.06a2.3,2.3,0,0,0,1.87.37l5.59-1.76A3.46,3.46,0,0,1,312.1,360.75Zm15.62-1.92c-4.44,0-8.81-1.21-11.54-3.48-1.93-1.61-2.83-3.59-2.51-5.56.39-2.48,2.6-4.69,6.06-6.08,6.33-2.53,15.06-1.61,19.47,2.06h0c1.94,1.61,2.83,3.58,2.52,5.56-.39,2.47-2.6,4.68-6.07,6.07A21.55,21.55,0,0,1,327.72,358.83Zm0-15.84a20.9,20.9,0,0,0-7.68,1.39c-3.23,1.29-5.28,3.3-5.63,5.52-.27,1.72.54,3.46,2.27,4.9,4.22,3.52,12.63,4.39,18.74,1.94,3.23-1.29,5.28-3.31,5.63-5.52.27-1.72-.53-3.46-2.27-4.91h0C336.14,344.15,332,343,327.68,343Z" style="fill:#fff"></path></g></g><g id="freepik--gear--inject-4"><path d="M293.09,357l-7.76-4.48a2.11,2.11,0,0,0-1.72-.08l-7.87,3.65a2.92,2.92,0,0,1-1.8.11,46.14,46.14,0,0,0-6.11-1.46,1.49,1.49,0,0,1-1.14-1.1l-1-5.19a1.23,1.23,0,0,0-1.15-.95H253.15a1.22,1.22,0,0,0-1.15.95l-1,5.19a1.48,1.48,0,0,1-1.14,1.1,46,46,0,0,0-6.1,1.46,2.92,2.92,0,0,1-1.8-.11l-7.87-3.65a2.11,2.11,0,0,0-1.72.08L224.62,357a.66.66,0,0,0-.37.53h0l0,6.73h0a.62.62,0,0,0,.3.52l3.58,2.57a1.77,1.77,0,0,1-.89.37l-10.34.65a1.06,1.06,0,0,0-1,1v4.4h0v8.09a1,1,0,0,0,1,1l10.35.66a1.71,1.71,0,0,1,.89.38l-3.55,2.55a.67.67,0,0,0-.3.52h0l0,6.74h0a.63.63,0,0,0,.36.53l7.76,4.48a2.07,2.07,0,0,0,1.72.08l7.87-3.64a2.85,2.85,0,0,1,1.8-.11,47.75,47.75,0,0,0,6.11,1.45,1.49,1.49,0,0,1,1.13,1.1l1,5.19a1.21,1.21,0,0,0,1.15,1h11.41a1.21,1.21,0,0,0,1.15-1l1-5.19a1.49,1.49,0,0,1,1.14-1.1,47.75,47.75,0,0,0,6.11-1.45,2.91,2.91,0,0,1,1.8.1l7.87,3.65a2.07,2.07,0,0,0,1.72-.08l7.76-4.48a.6.6,0,0,0,.36-.51h0l0-6.75h0a.66.66,0,0,0-.31-.52l-3.57-2.57a1.73,1.73,0,0,1,.88-.36l10.35-.66a1,1,0,0,0,1-1l0-6.7v-5.8a1.05,1.05,0,0,0-1-1l-10.35-.65a1.77,1.77,0,0,1-.9-.38l3.55-2.56a.64.64,0,0,0,.31-.51h0l0-6.74h0A.63.63,0,0,0,293.09,357Zm-52.4,17.44c.55-1.86,2.21-3.68,5.05-5.32,7.24-4.18,19-4.18,26.22,0,2.66,1.54,4.39,3.22,5.18,4.95-.62,2.12-2.34,4.15-5.17,5.79-7.25,4.18-19,4.18-26.23,0A10.73,10.73,0,0,1,240.69,374.43Z" style="fill:#9615DB"></path><path d="M293.09,357l-7.76-4.48a2.11,2.11,0,0,0-1.72-.08l-7.87,3.65a2.92,2.92,0,0,1-1.8.11,46.14,46.14,0,0,0-6.11-1.46,1.49,1.49,0,0,1-1.14-1.1l-1-5.19a1.23,1.23,0,0,0-1.15-.95H253.15a1.22,1.22,0,0,0-1.15.95l-1,5.19a1.48,1.48,0,0,1-1.14,1.1,46,46,0,0,0-6.1,1.46,2.92,2.92,0,0,1-1.8-.11l-7.87-3.65a2.11,2.11,0,0,0-1.72.08L224.62,357a.66.66,0,0,0-.37.53h0l0,6.73h0a.62.62,0,0,0,.3.52l3.58,2.57a1.77,1.77,0,0,1-.89.37l-10.34.65a1.06,1.06,0,0,0-1,1v4.4h0v8.09a1,1,0,0,0,1,1l10.35.66a1.71,1.71,0,0,1,.89.38l-3.55,2.55a.67.67,0,0,0-.3.52h0l0,6.74h0a.63.63,0,0,0,.36.53l7.76,4.48a2.07,2.07,0,0,0,1.72.08l7.87-3.64a2.85,2.85,0,0,1,1.8-.11,47.75,47.75,0,0,0,6.11,1.45,1.49,1.49,0,0,1,1.13,1.1l1,5.19a1.21,1.21,0,0,0,1.15,1h11.41a1.21,1.21,0,0,0,1.15-1l1-5.19a1.49,1.49,0,0,1,1.14-1.1,47.75,47.75,0,0,0,6.11-1.45,2.91,2.91,0,0,1,1.8.1l7.87,3.65a2.07,2.07,0,0,0,1.72-.08l7.76-4.48a.6.6,0,0,0,.36-.51h0l0-6.75h0a.66.66,0,0,0-.31-.52l-3.57-2.57a1.73,1.73,0,0,1,.88-.36l10.35-.66a1,1,0,0,0,1-1l0-6.7v-5.8a1.05,1.05,0,0,0-1-1l-10.35-.65a1.77,1.77,0,0,1-.9-.38l3.55-2.56a.64.64,0,0,0,.31-.51h0l0-6.74h0A.63.63,0,0,0,293.09,357Zm-52.4,17.44c.55-1.86,2.21-3.68,5.05-5.32,7.24-4.18,19-4.18,26.22,0,2.66,1.54,4.39,3.22,5.18,4.95-.62,2.12-2.34,4.15-5.17,5.79-7.25,4.18-19,4.18-26.23,0A10.73,10.73,0,0,1,240.69,374.43Z" style="fill:#fff;opacity:0.2"></path><path d="M228.63,377.78a1.86,1.86,0,0,0-1.4-.93l-10.34-.66a1,1,0,0,1-1-1V373.8l0,8.09a1.05,1.05,0,0,0,1,1l10.35.65a1.8,1.8,0,0,1,.91.38l2.59-1.87a.82.82,0,0,0,.11-1.26A15.56,15.56,0,0,1,228.63,377.78Zm-4.4-13.53h0a.64.64,0,0,0,.3.52l3.58,2.58a1.83,1.83,0,0,0,.51-.57,15.92,15.92,0,0,1,2.2-3,.81.81,0,0,0-.12-1.26L224.56,358a.73.73,0,0,1-.31-.45Z" style="opacity:0.1"></path><path d="M272,364.71c-7.25-4.18-19-4.19-26.23,0-4.58,2.65-6.26,6.33-5.06,9.73.55-1.85,2.22-3.68,5.06-5.32,7.24-4.18,19-4.18,26.22,0,2.66,1.54,4.39,3.22,5.18,4.95C278.1,370.76,276.37,367.25,272,364.71Z" style="opacity:0.1"></path><path d="M301.77,375.3a1,1,0,0,1-.95.89l-10.35.66a1.26,1.26,0,0,0-.52.14v6.74a1.41,1.41,0,0,1,.51-.15l10.35-.66a1,1,0,0,0,1-1Zm-8.32-17.78h0a.52.52,0,0,1,0,.21.49.49,0,0,1-.13.2.55.55,0,0,1-.14.12L287,362.47a.64.64,0,0,0-.15.13.8.8,0,0,0-.19.38.77.77,0,0,0,0,.26l0,.13a1,1,0,0,0,.21.36.76.76,0,0,1,.11.14,15.08,15.08,0,0,1,2.09,2.91,2,2,0,0,0,.48.55l3.56-2.55a.67.67,0,0,0,.31-.52h0Zm0,29.57a.66.66,0,0,1-.36.48L285.32,392a2,2,0,0,1-1.2.22V399a2,2,0,0,0,1.2-.21l7.76-4.48a.6.6,0,0,0,.36-.51Zm-50.71,1.2a2.55,2.55,0,0,0-.78.18l-7.86,3.65a1.6,1.6,0,0,1-.7.15l0,6.72a1.94,1.94,0,0,0,.7-.14L242,395.2a2.81,2.81,0,0,1,.77-.18Zm22.78,8.26a1.19,1.19,0,0,1-1,.51H253.14a1.15,1.15,0,0,1-.69-.26v6.73a1.1,1.1,0,0,0,.69.25h11.41a1.23,1.23,0,0,0,1-.57Z" style="fill:#9615DB"></path><path d="M301.77,375.3a1,1,0,0,1-.95.89l-10.35.66a1.26,1.26,0,0,0-.52.14v6.74a1.41,1.41,0,0,1,.51-.15l10.35-.66a1,1,0,0,0,1-1Zm-8.32-17.78h0a.52.52,0,0,1,0,.21.49.49,0,0,1-.13.2.55.55,0,0,1-.14.12L287,362.47a.64.64,0,0,0-.15.13.8.8,0,0,0-.19.38.77.77,0,0,0,0,.26l0,.13a1,1,0,0,0,.21.36.76.76,0,0,1,.11.14,15.08,15.08,0,0,1,2.09,2.91,2,2,0,0,0,.48.55l3.56-2.55a.67.67,0,0,0,.31-.52h0Zm0,29.57a.66.66,0,0,1-.36.48L285.32,392a2,2,0,0,1-1.2.22V399a2,2,0,0,0,1.2-.21l7.76-4.48a.6.6,0,0,0,.36-.51Zm-50.71,1.2a2.55,2.55,0,0,0-.78.18l-7.86,3.65a1.6,1.6,0,0,1-.7.15l0,6.72a1.94,1.94,0,0,0,.7-.14L242,395.2a2.81,2.81,0,0,1,.77-.18Zm22.78,8.26a1.19,1.19,0,0,1-1,.51H253.14a1.15,1.15,0,0,1-.69-.26v6.73a1.1,1.1,0,0,0,.69.25h11.41a1.23,1.23,0,0,0,1-.57Z" style="fill:#fff;opacity:0.7000000000000001"></path><path d="M283.61,352.43l-7.87,3.65a2.92,2.92,0,0,1-1.8.11,46.14,46.14,0,0,0-6.11-1.46,1.49,1.49,0,0,1-1.14-1.1l-1-5.19a1.23,1.23,0,0,0-1.15-.95H253.15a1.22,1.22,0,0,0-1.15.95l-1,5.19a1.48,1.48,0,0,1-1.14,1.1,46,46,0,0,0-6.1,1.46,2.92,2.92,0,0,1-1.8-.11l-7.87-3.65a2.11,2.11,0,0,0-1.72.08L224.62,357a.58.58,0,0,0-.06,1.05l6.16,4.43a.82.82,0,0,1,.11,1.26,15.32,15.32,0,0,0-2.2,3,1.91,1.91,0,0,1-1.4.93l-10.34.65a1.06,1.06,0,0,0-1,1v5.77a1,1,0,0,0,1,1l10.34.66a1.89,1.89,0,0,1,1.4.93,15.56,15.56,0,0,0,2.2,3,.83.83,0,0,1-.11,1.27l-6.16,4.42a.58.58,0,0,0,.06,1.05l7.76,4.48a2.07,2.07,0,0,0,1.72.08l7.87-3.64a2.84,2.84,0,0,1,1.8-.11,47.6,47.6,0,0,0,6.1,1.45,1.49,1.49,0,0,1,1.14,1.11l1,5.18a1.21,1.21,0,0,0,1.15.95h11.41a1.21,1.21,0,0,0,1.15-.95l1-5.18a1.49,1.49,0,0,1,1.14-1.11,47.75,47.75,0,0,0,6.11-1.45,2.85,2.85,0,0,1,1.8.11l7.87,3.64a2.07,2.07,0,0,0,1.72-.08l7.76-4.48a.58.58,0,0,0,.05-1.05L287,382.09a.82.82,0,0,1-.11-1.27,15.5,15.5,0,0,0,2.19-3,1.92,1.92,0,0,1,1.4-.93l10.35-.66a1,1,0,0,0,1-1v-5.77a1.05,1.05,0,0,0-1-1l-10.35-.65a2,2,0,0,1-1.4-.93,15.85,15.85,0,0,0-2.19-3,.82.82,0,0,1,.11-1.26l6.15-4.43a.58.58,0,0,0-.05-1.05l-7.76-4.48A2.11,2.11,0,0,0,283.61,352.43ZM272,364.71c7.24,4.18,7.24,11,0,15.14s-19,4.18-26.23,0-7.24-11,0-15.14S264.72,360.52,272,364.71Z" style="fill:#9615DB"></path><g style="opacity:0.55"><path d="M283.61,352.43l-7.87,3.65a2.92,2.92,0,0,1-1.8.11,46.14,46.14,0,0,0-6.11-1.46,1.49,1.49,0,0,1-1.14-1.1l-1-5.19a1.23,1.23,0,0,0-1.15-.95H253.15a1.22,1.22,0,0,0-1.15.95l-1,5.19a1.48,1.48,0,0,1-1.14,1.1,46,46,0,0,0-6.1,1.46,2.92,2.92,0,0,1-1.8-.11l-7.87-3.65a2.11,2.11,0,0,0-1.72.08L224.62,357a.58.58,0,0,0-.06,1.05l6.16,4.43a.82.82,0,0,1,.11,1.26,15.32,15.32,0,0,0-2.2,3,1.91,1.91,0,0,1-1.4.93l-10.34.65a1.06,1.06,0,0,0-1,1v5.77a1,1,0,0,0,1,1l10.34.66a1.89,1.89,0,0,1,1.4.93,15.56,15.56,0,0,0,2.2,3,.83.83,0,0,1-.11,1.27l-6.16,4.42a.58.58,0,0,0,.06,1.05l7.76,4.48a2.07,2.07,0,0,0,1.72.08l7.87-3.64a2.84,2.84,0,0,1,1.8-.11,47.6,47.6,0,0,0,6.1,1.45,1.49,1.49,0,0,1,1.14,1.11l1,5.18a1.21,1.21,0,0,0,1.15.95h11.41a1.21,1.21,0,0,0,1.15-.95l1-5.18a1.49,1.49,0,0,1,1.14-1.11,47.75,47.75,0,0,0,6.11-1.45,2.85,2.85,0,0,1,1.8.11l7.87,3.64a2.07,2.07,0,0,0,1.72-.08l7.76-4.48a.58.58,0,0,0,.05-1.05L287,382.09a.82.82,0,0,1-.11-1.27,15.5,15.5,0,0,0,2.19-3,1.92,1.92,0,0,1,1.4-.93l10.35-.66a1,1,0,0,0,1-1v-5.77a1.05,1.05,0,0,0-1-1l-10.35-.65a2,2,0,0,1-1.4-.93,15.85,15.85,0,0,0-2.19-3,.82.82,0,0,1,.11-1.26l6.15-4.43a.58.58,0,0,0-.05-1.05l-7.76-4.48A2.11,2.11,0,0,0,283.61,352.43ZM272,364.71c7.24,4.18,7.24,11,0,15.14s-19,4.18-26.23,0-7.24-11,0-15.14S264.72,360.52,272,364.71Z" style="fill:#fff"></path><path d="M264.56,397.34H253.15a1.49,1.49,0,0,1-1.43-1.18l-1-5.18a1.23,1.23,0,0,0-.91-.89,46.06,46.06,0,0,1-6.15-1.46,2.57,2.57,0,0,0-1.6.1l-7.87,3.64a2.38,2.38,0,0,1-2-.09l-7.76-4.48a.88.88,0,0,1-.5-.73.91.91,0,0,1,.42-.78l6.15-4.43a.51.51,0,0,0,.24-.39.59.59,0,0,0-.16-.46,15.56,15.56,0,0,1-2.24-3.1,1.64,1.64,0,0,0-1.17-.79l-10.35-.65a1.33,1.33,0,0,1-1.22-1.31v-5.77a1.32,1.32,0,0,1,1.22-1.3l10.35-.66a1.65,1.65,0,0,0,1.17-.78,15,15,0,0,1,2.24-3.1.62.62,0,0,0,.16-.47.52.52,0,0,0-.24-.39l-6.15-4.42a.86.86,0,0,1,.08-1.52l7.76-4.48a2.38,2.38,0,0,1,2-.09l7.87,3.65a2.65,2.65,0,0,0,1.6.09,49.37,49.37,0,0,1,6.15-1.46,1.2,1.2,0,0,0,.91-.88l1-5.19a1.47,1.47,0,0,1,1.42-1.17h11.41a1.47,1.47,0,0,1,1.42,1.17l1,5.19a1.21,1.21,0,0,0,.92.88,47.5,47.5,0,0,1,6.14,1.46,2.64,2.64,0,0,0,1.6-.09l7.87-3.65a2.38,2.38,0,0,1,2,.09l7.77,4.48a1,1,0,0,1,.5.74.93.93,0,0,1-.43.78l-6.15,4.42a.57.57,0,0,0-.24.39.63.63,0,0,0,.17.47,15.79,15.79,0,0,1,2.24,3.1,1.63,1.63,0,0,0,1.17.78l10.34.66a1.32,1.32,0,0,1,1.23,1.3v5.77a1.33,1.33,0,0,1-1.23,1.31l-10.34.65a1.65,1.65,0,0,0-1.17.79,16.4,16.4,0,0,1-2.24,3.1.54.54,0,0,0,.07.85l6.15,4.43a.85.85,0,0,1-.07,1.51l-7.77,4.48a2.38,2.38,0,0,1-2,.09l-7.87-3.64a2.57,2.57,0,0,0-1.6-.1,45.91,45.91,0,0,1-6.14,1.46,1.23,1.23,0,0,0-.92.89l-1,5.18A1.48,1.48,0,0,1,264.56,397.34ZM243.05,388a2.92,2.92,0,0,1,.8.1,46.42,46.42,0,0,0,6.07,1.45,1.77,1.77,0,0,1,1.36,1.32l1,5.19a.94.94,0,0,0,.88.73h11.41a1,1,0,0,0,.88-.73l1-5.19a1.77,1.77,0,0,1,1.36-1.32,46.58,46.58,0,0,0,6.08-1.45,3.11,3.11,0,0,1,2,.13l7.87,3.64a1.77,1.77,0,0,0,1.46-.07l7.76-4.48a.4.4,0,0,0,.23-.28.4.4,0,0,0-.2-.3l-6.15-4.43a1.08,1.08,0,0,1-.47-.78,1.15,1.15,0,0,1,.31-.89,15.32,15.32,0,0,0,2.16-3,2.18,2.18,0,0,1,1.62-1.07l10.35-.65a.78.78,0,0,0,.71-.76v-5.77a.76.76,0,0,0-.71-.75L290.45,368a2.18,2.18,0,0,1-1.62-1.07,15.26,15.26,0,0,0-2.16-3,1.17,1.17,0,0,1-.31-.89,1.08,1.08,0,0,1,.47-.78l6.15-4.43a.41.41,0,0,0,.2-.31.4.4,0,0,0-.23-.28l-7.76-4.48a1.86,1.86,0,0,0-1.46-.07l-7.87,3.65a3.18,3.18,0,0,1-2,.12,46.81,46.81,0,0,0-6.07-1.44,1.78,1.78,0,0,1-1.37-1.33l-1-5.18a1,1,0,0,0-.88-.73H253.15a.94.94,0,0,0-.88.73l-1,5.18a1.78,1.78,0,0,1-1.36,1.33,46.42,46.42,0,0,0-6.07,1.44,3.18,3.18,0,0,1-2-.12L234,352.68a1.81,1.81,0,0,0-1.46.07l-7.77,4.48c-.13.08-.22.18-.22.28a.4.4,0,0,0,.19.31l6.16,4.43a1.07,1.07,0,0,1,.46.78,1.09,1.09,0,0,1-.31.89,15.2,15.2,0,0,0-2.15,3,2.2,2.2,0,0,1-1.63,1.07l-10.34.66a.76.76,0,0,0-.71.75v5.77a.78.78,0,0,0,.71.76l10.34.65a2.2,2.2,0,0,1,1.63,1.07,15.26,15.26,0,0,0,2.15,3,1.08,1.08,0,0,1,.31.89,1.07,1.07,0,0,1-.46.78l-6.15,4.43a.37.37,0,0,0-.2.3c0,.1.09.2.22.28l7.77,4.48a1.77,1.77,0,0,0,1.46.07l7.87-3.65A3.17,3.17,0,0,1,243.05,388Zm15.8-4.75a27.07,27.07,0,0,1-13.25-3.16C242,378,240,375.24,240,372.28s2-5.74,5.57-7.81c7.31-4.22,19.2-4.22,26.5,0h0c3.6,2.07,5.58,4.84,5.58,7.81s-2,5.73-5.58,7.81A27.07,27.07,0,0,1,258.85,383.25Zm0-21.4a26.55,26.55,0,0,0-13,3.09c-3.42,2-5.3,4.58-5.3,7.34s1.88,5.36,5.3,7.33c7.15,4.13,18.79,4.13,25.95,0,3.41-2,5.29-4.58,5.29-7.33s-1.88-5.36-5.29-7.34h0A26.61,26.61,0,0,0,258.85,361.85Z" style="fill:#fff"></path></g></g></g></g><g id="freepik--speech-bubble-2--inject-4"><g id="freepik--speech-bubble--inject-4"><g id="freepik--speech-bubble--inject-4"><path d="M338.6,136.13a34.08,34.08,0,1,0-19.19,31.64c7.24,3.61,17.24,3.21,22-.91a.6.6,0,0,0,.16-.68.58.58,0,0,0-.56-.37,15.57,15.57,0,0,1-11.58-5.4A33.7,33.7,0,0,0,338.6,136.13ZM328.21,160a.59.59,0,0,0,0,.76,17,17,0,0,0,11.13,6.18c-4.83,2.9-13.47,2.85-19.61-.33a.6.6,0,0,0-.54,0,32.48,32.48,0,0,1-13.52,3.4,32.85,32.85,0,1,1,22.59-10Z" style="fill:#9615DB"></path><path d="M328.21,160a.59.59,0,0,0,0,.76,17,17,0,0,0,11.13,6.18c-4.83,2.9-13.47,2.85-19.61-.33a.6.6,0,0,0-.54,0,32.48,32.48,0,0,1-13.52,3.4,32.85,32.85,0,1,1,22.59-10Z" style="fill:#fff"></path></g><path id="freepik--Like--inject-4" d="M306.1,125.4c-.39-1,.06-5.36.07-6.16s-3.8-1.09-5,1.79a11.6,11.6,0,0,0-.69,7.95h-9.27a2.87,2.87,0,0,0-2.79,2.88,3.07,3.07,0,0,0,1.48,2.69,2.6,2.6,0,0,0-1.89,2.58,2.86,2.86,0,0,0,2.23,2.78,3.5,3.5,0,0,0-.62,2.19,3.12,3.12,0,0,0,2.57,2.68,5.6,5.6,0,0,0-.42,2.09,3.16,3.16,0,0,0,3.38,2.88h15.52V132.56S306.5,126.4,306.1,125.4Zm6.54,6.67v20h6.79v-20Zm3.84,18a1.18,1.18,0,1,1,.62-1.56A1.19,1.19,0,0,1,316.48,150Z" style="fill:#455a64"></path></g></g><g id="freepik--speech-bubble-1--inject-4"><g id="freepik--speech-bubble--inject-4"><g id="freepik--speech-bubble--inject-4"><path d="M211,124a13.3,13.3,0,0,1-9.9,4.61.51.51,0,0,0-.48.32.53.53,0,0,0,.14.58c4,3.52,12.6,3.87,18.79.77A29.06,29.06,0,1,0,211,124Z" style="fill:#e0e0e0"></path></g><path d="M248.43,100.26a4.1,4.1,0,1,0,4.09,4.09A4.09,4.09,0,0,0,248.43,100.26Zm-16,0a4.1,4.1,0,1,0,4.09,4.09A4.09,4.09,0,0,0,232.48,100.26Zm-16,0a4.1,4.1,0,1,0,4.09,4.09A4.09,4.09,0,0,0,216.52,100.26Z" style="fill:#fff"></path></g></g><g id="freepik--paper-plane-2--inject-4"><g id="freepik--paper-planes--inject-4"><g id="freepik--paper-plane--inject-4"><polygon points="408.67 183.18 448.86 163.08 464.88 170.16 408.67 183.18" style="fill:#9615DB"></polygon><polygon points="408.67 183.18 444.08 159.51 437.74 150.4 408.67 183.18" style="fill:#9615DB"></polygon><polygon points="444.08 159.51 443.41 165.81 408.67 183.18 444.08 159.51" style="fill:#9615DB"></polygon><polygon points="444.08 159.51 443.41 165.81 408.67 183.18 444.08 159.51" style="opacity:0.2"></polygon><path d="M449.64,159.43a.64.64,0,0,1-.52-.25.66.66,0,0,1,.1-.94l.47.49.37.56A.65.65,0,0,1,449.64,159.43Zm3.39-3a.68.68,0,0,1-.49-1.14,27.72,27.72,0,0,0,3.25-4.11.68.68,0,0,1,1.13.74,29.7,29.7,0,0,1-3.41,4.3A.64.64,0,0,1,453,156.44Zm5.47-8.13a.71.71,0,0,1-.28-.06.68.68,0,0,1-.33-.89,31.52,31.52,0,0,0,1.78-4.94.67.67,0,1,1,1.29.35,32.17,32.17,0,0,1-1.85,5.15A.65.65,0,0,1,458.5,148.31Zm2.69-9.43h-.09a.66.66,0,0,1-.57-.75,35.78,35.78,0,0,0,.29-4.53v-.72a.67.67,0,0,1,.65-.69h0a.68.68,0,0,1,.67.66v.75a36.77,36.77,0,0,1-.3,4.71A.68.68,0,0,1,461.19,138.88Zm-.07-9.81a.68.68,0,0,1-.67-.58,35.47,35.47,0,0,0-1.12-5.14.67.67,0,1,1,1.28-.38,36.79,36.79,0,0,1,1.17,5.33.66.66,0,0,1-.57.76Zm-2.67-9.44a.69.69,0,0,1-.62-.41,36.45,36.45,0,0,0-2.41-4.69.67.67,0,1,1,1.15-.69,38.34,38.34,0,0,1,2.5,4.85.67.67,0,0,1-.35.88A.66.66,0,0,1,458.45,119.63Zm-5-8.46a.67.67,0,0,1-.54-.27,41.6,41.6,0,0,0-3.47-4,.68.68,0,0,1,0-1,.67.67,0,0,1,.95,0,42,42,0,0,1,3.59,4.1.68.68,0,0,1-.53,1.08Zm-6.84-7a.7.7,0,0,1-.43-.15c-.81-.67-1.66-1.32-2.52-1.94-.57-.4-1.16-.8-1.75-1.19a.68.68,0,0,1-.19-.93.66.66,0,0,1,.93-.19c.61.4,1.2.8,1.79,1.22.88.63,1.76,1.3,2.59,2a.68.68,0,0,1,.1.95A.69.69,0,0,1,446.64,104.12Zm-8.16-5.48a.67.67,0,0,1-.33-.08c-1.5-.83-3.1-1.63-4.75-2.37A.67.67,0,0,1,434,95c1.68.76,3.32,1.58,4.85,2.42a.68.68,0,0,1,.27.92A.69.69,0,0,1,438.48,98.64Zm-8.94-4.11a.59.59,0,0,1-.23,0c-1.63-.62-3.32-1.2-5-1.73a.67.67,0,0,1,.39-1.28c1.75.54,3.47,1.13,5.12,1.76a.67.67,0,0,1-.24,1.29Zm-9.38-3-.17,0c-1.68-.43-3.43-.83-5.2-1.18a.67.67,0,0,1,.26-1.32c1.8.36,3.57.76,5.28,1.2a.67.67,0,0,1-.17,1.32Zm-54.05-.11a.67.67,0,0,1-.65-.51.66.66,0,0,1,.48-.81c1.71-.45,3.48-.85,5.27-1.2a.67.67,0,0,1,.79.53.68.68,0,0,1-.53.79c-1.76.34-3.51.74-5.19,1.17Zm44.4-1.86h-.1c-1.73-.27-3.51-.51-5.29-.7a.67.67,0,1,1,.14-1.33c1.8.19,3.61.43,5.36.7a.68.68,0,0,1,.56.77A.68.68,0,0,1,410.51,89.61Zm-34.76-.1a.68.68,0,0,1-.67-.57.67.67,0,0,1,.57-.76c1.75-.27,3.55-.49,5.35-.68a.69.69,0,0,1,.74.6.67.67,0,0,1-.6.74c-1.78.18-3.56.4-5.29.66Zm25-1h-.05c-1.76-.12-3.56-.2-5.33-.24a.67.67,0,1,1,0-1.34h0c1.79,0,3.61.12,5.39.24a.68.68,0,0,1,.63.71A.68.68,0,0,1,400.73,88.53Zm-15.2,0a.67.67,0,0,1,0-1.34c1.78-.11,3.59-.18,5.39-.21h0a.68.68,0,0,1,0,1.35c-1.78,0-3.57.09-5.33.2Z" style="fill:#e0e0e0"></path></g></g></g><g id="freepik--light-bulb--inject-4"><g id="freepik--Idea--inject-4"><g id="freepik--Light--inject-4"><circle cx="125" cy="82.36" r="42.47" transform="translate(-21.62 112.51) rotate(-45)" style="fill:#9615DB;opacity:0.1"></circle><circle cx="125" cy="82.36" r="53.68" transform="translate(-21.62 112.51) rotate(-45)" style="fill:#9615DB;opacity:0.1"></circle><circle cx="125" cy="82.36" r="64.32" transform="translate(21.53 190.54) rotate(-79.65)" style="fill:#9615DB;opacity:0.1"></circle><path d="M116.38,47.35a1.39,1.39,0,0,1-1.7-1l-3.34-13.58a1.41,1.41,0,0,1,2.73-.67l3.34,13.58A1.41,1.41,0,0,1,116.38,47.35Z" style="fill:#fff"></path><path d="M134.67,47.8a1.47,1.47,0,0,1-.72,0A1.4,1.4,0,0,1,133,46l3.9-13.43a1.41,1.41,0,1,1,2.7.79l-3.9,13.42A1.42,1.42,0,0,1,134.67,47.8Z" style="fill:#fff"></path><path d="M150.3,57.33A1.41,1.41,0,0,1,149,55l10.09-9.68a1.41,1.41,0,0,1,1.95,2L150.94,57A1.45,1.45,0,0,1,150.3,57.33Z" style="fill:#fff"></path><path d="M172.64,70.06,159.06,73.4a1.41,1.41,0,0,1-.67-2.74L172,67.33a1.4,1.4,0,0,1,1.7,1A1.42,1.42,0,0,1,172.64,70.06Z" style="fill:#fff"></path><path d="M172,95.59a1.39,1.39,0,0,1-.73,0l-13.42-3.9a1.41,1.41,0,0,1,.78-2.71l13.43,3.9a1.42,1.42,0,0,1,1,1.75A1.41,1.41,0,0,1,172,95.59Z" style="fill:#fff"></path><path d="M89,115.78a1.43,1.43,0,0,1-1.35-.39,1.41,1.41,0,0,1,0-2l10.09-9.68a1.41,1.41,0,1,1,1.95,2l-10.09,9.68A1.45,1.45,0,0,1,89,115.78Z" style="fill:#fff"></path><path d="M90.33,90,76.76,93.37a1.41,1.41,0,0,1-.67-2.73L89.66,87.3a1.41,1.41,0,0,1,1.7,1A1.39,1.39,0,0,1,90.33,90Z" style="fill:#fff"></path><path d="M90.78,71.74a1.51,1.51,0,0,1-.73,0l-13.43-3.9a1.41,1.41,0,0,1,.79-2.7L90.83,69a1.41,1.41,0,0,1,0,2.72Z" style="fill:#fff"></path><path d="M100.31,56.11A1.38,1.38,0,0,1,99,55.72L89.28,45.63a1.41,1.41,0,0,1,2-2L101,53.78a1.39,1.39,0,0,1,0,2A1.27,1.27,0,0,1,100.31,56.11Z" style="fill:#fff"></path></g><g id="freepik--Bulb--inject-4"><g id="freepik--Socket--inject-4"><path d="M133.36,132.17c-2.31-.66-2.78-2.56-1.05-4.23a8.33,8.33,0,0,1,7.33-1.82c2.31.67,2.78,2.56,1.05,4.23A8.33,8.33,0,0,1,133.36,132.17Z" style="fill:#263238"></path><path d="M141.64,128.91l-.84.21a2.55,2.55,0,0,0-1.34-.8,6.79,6.79,0,0,0-6,1.48,2.64,2.64,0,0,0-.81,1.33l-.84.21,1.34,1.29h0a2.83,2.83,0,0,0,1.16.61,6.78,6.78,0,0,0,6-1.48,2.79,2.79,0,0,0,.74-1.08h0Z" style="fill:#263238"></path><path d="M131.27,131.24c-3.42-1-4.11-3.79-1.54-6.26a12.35,12.35,0,0,1,10.84-2.66c3.42,1,4.11,3.79,1.54,6.26A12.32,12.32,0,0,1,131.27,131.24Z" style="fill:#455a64"></path><path d="M130.82,130.28c-3.55-1-4.26-3.94-1.6-6.49A12.8,12.8,0,0,1,140.47,121c3.54,1,4.26,3.94,1.59,6.5A12.8,12.8,0,0,1,130.82,130.28Z" style="fill:#37474f"></path><path d="M130.4,129.18c-3.64-1.05-4.37-4-1.64-6.65a13.12,13.12,0,0,1,11.53-2.84c3.64,1.06,4.37,4,1.64,6.66A13.11,13.11,0,0,1,130.4,129.18Z" style="fill:#455a64"></path><path d="M130,128.09c-3.73-1.08-4.48-4.14-1.68-6.82a13.45,13.45,0,0,1,11.82-2.91c3.72,1.08,4.47,4.14,1.67,6.82A13.44,13.44,0,0,1,130,128.09Z" style="fill:#37474f"></path><path d="M129.56,127c-3.82-1.11-4.59-4.23-1.72-7a13.77,13.77,0,0,1,12.1-3c3.82,1.11,4.58,4.24,1.72,7A13.77,13.77,0,0,1,129.56,127Z" style="fill:#455a64"></path><path d="M129.14,125.9c-3.91-1.14-4.7-4.34-1.76-7.15a14.09,14.09,0,0,1,12.38-3c3.91,1.14,4.7,4.34,1.76,7.15A14.09,14.09,0,0,1,129.14,125.9Z" style="fill:#37474f"></path></g><path d="M142.5,114c-.33-1.35-1.56-2.48-3.6-3.08a14.78,14.78,0,0,0-13,3.19c-1.53,1.47-2.09,3-1.76,4.4l.77,3.11c.33,1.36,1.56,2.49,3.6,3.08a14.77,14.77,0,0,0,13-3.18c1.53-1.47,2.09-3.05,1.76-4.4Z" style="fill:#9615DB"></path><path d="M118,53.7A28.39,28.39,0,0,0,97.17,88c5.38,21.88,24.33,21.08,26.49,29.9.35,1.4,1.62,2.58,3.74,3.2a15.31,15.31,0,0,0,13.45-3.31c1.59-1.53,2.18-3.16,1.83-4.56h0c-2.16-8.82,15-16.89,9.62-38.78A28.39,28.39,0,0,0,118,53.7Z" style="fill:#fff"></path><path d="M128.36,120.28c-3.55-1-4.26-3.94-1.6-6.49A12.8,12.8,0,0,1,138,111c3.55,1,4.26,3.94,1.6,6.5A12.82,12.82,0,0,1,128.36,120.28Z" style="fill:#f5f5f5"></path><path d="M140.7,116.16a6.84,6.84,0,0,1-1.09,1.36,12.83,12.83,0,0,1-11.25,2.76,6.15,6.15,0,0,1-1.59-.7,6.43,6.43,0,0,1,1.08-1.36,12.83,12.83,0,0,1,11.25-2.76A5.9,5.9,0,0,1,140.7,116.16Z" style="fill:#9615DB;opacity:0.25"></path><path d="M140.7,116.16a6.84,6.84,0,0,1-1.09,1.36,12.83,12.83,0,0,1-11.25,2.76,6.15,6.15,0,0,1-1.59-.7,6.43,6.43,0,0,1,1.08-1.36,12.83,12.83,0,0,1,11.25-2.76A5.9,5.9,0,0,1,140.7,116.16Z" style="fill:#ebebeb"></path><path d="M134.72,61.38a4.55,4.55,0,0,0-.82.82,4.15,4.15,0,0,0-.42,4.08c1,2.57,4,3.6,6,5.31a24.49,24.49,0,0,1,5.44,6.63,14.49,14.49,0,0,0,1.62,2.64,2.23,2.23,0,0,0,3,.25,4.19,4.19,0,0,0,1.05-3.4,21.7,21.7,0,0,0-7.39-14.84C140.84,60.68,137.61,59.21,134.72,61.38Z" style="fill:#9615DB;opacity:0.1"></path><path d="M146.9,85.31a3.14,3.14,0,0,0,.89,2.4,1.82,1.82,0,0,0,2.56,0,2.93,2.93,0,0,0,.72-2.71,2.21,2.21,0,0,0-2.33-1.76A2.32,2.32,0,0,0,146.9,85.31Z" style="fill:#9615DB;opacity:0.1"></path><path d="M137.08,117.61l-.32.08c-2.41-9.81-3.35-16.1-3.14-21a19.81,19.81,0,0,1,.5-3.77,17.45,17.45,0,0,1-7.05-2.12,17.52,17.52,0,0,1-5.27,5.15A19.52,19.52,0,0,1,124,99c2.47,4.27,4.56,10.27,7,20.08l-.32.08c-2.41-9.78-4.48-15.76-6.93-20a19.59,19.59,0,0,0-2.2-3.1,8.76,8.76,0,0,1-.87.43c-3.07,1.32-5.17.86-6.1,0a2.13,2.13,0,0,1-.53-2.38,2.19,2.19,0,0,1,2-1.4c1.45-.14,3.49.64,5.59,3a17,17,0,0,0,5.21-5.06,7,7,0,0,1-1.18-.87c-2.07-1.91-2.46-3.9-2.15-5.13a2.29,2.29,0,0,1,1.68-1.7,2.26,2.26,0,0,1,2.26.73c.86.94,1.43,2.89.49,5.54a8,8,0,0,1-.65,1.32,17.09,17.09,0,0,0,7,2.07c.79-3,2.24-4.66,3.58-5.21a2.19,2.19,0,0,1,2.4.32,2.14,2.14,0,0,1,.64,2.36c-.42,1.21-2.06,2.59-5.39,2.85-.32,0-.64,0-1,0a18.69,18.69,0,0,0-.51,3.77C133.74,101.57,134.68,107.83,137.08,117.61Zm-2.54-25a8.1,8.1,0,0,0,.86,0c3.18-.24,4.73-1.52,5.11-2.63a1.79,1.79,0,0,0-.55-2,1.85,1.85,0,0,0-2.05-.26C136.71,88.16,135.32,89.71,134.54,92.58Zm-18.9.53a1.77,1.77,0,0,0-1.32,1.12,1.83,1.83,0,0,0,.44,2c.86.8,2.83,1.22,5.75,0,.26-.11.51-.24.77-.38-2-2.18-4-2.91-5.26-2.8Zm9.58-9.88a1.93,1.93,0,0,0-1.44,1.46c-.37,1.43.44,3.32,2,4.81a6.76,6.76,0,0,0,1.13.83,7.28,7.28,0,0,0,.62-1.26c.73-2.07.57-4.11-.42-5.21A1.94,1.94,0,0,0,125.22,83.23Z" style="fill:#455a64"></path></g></g></g><g id="freepik--character-2--inject-4"><g id="freepik--Character--inject-4"><g id="freepik--Bottom--inject-4"><polygon points="356.15 417.74 351.06 415.82 352.74 412.4 355.87 415.31 356.15 417.74"></polygon><path d="M361.46,408.65s.19,3.29.23,4.33-4.43,4.23-5.54,4.76l-.28-2.43a18.93,18.93,0,0,0-2.58,3.92c-.86,1.47-2,4.26-4.34,6.15-3.51,2.82-9,4.23-14.54,4.4s-8.75-1.19-10.33-2.4-2.07-2.6-1.67-4S361.46,408.65,361.46,408.65Z" style="fill:#263238"></path><path d="M346.62,397.35l-.05-1.91c-1,0-1.17,2.73-2.68,5.15a49.87,49.87,0,0,1-7.88,9.9c-5.67,5.07-10.72,8.25-13.25,10.53-3.39,3.06,2.51,8,11.6,7.5,4.51-.23,12.53-2.44,14.8-5.07s3.66-6.74,5.48-8.65,5.69-3.83,6.82-6.15c.63-1.28.31-4.27,0-6.81-.33-2.33-.38-5.9-1.71-5.62l-.1,1.2c-.55,1-1.81,2.69-5.45,3.28C352.34,401,346.93,401.14,346.62,397.35Z" style="fill:#37474f"></path><path d="M351.24,400.79c-1.73-.16-3.6-.74-4.32-2.29l0-.05a4.35,4.35,0,0,1-1.19,3.66c-1.63,1.88-12,15.12-12,15.12s9.6-10.92,11.45-13c2.72-3,3.58-3.4,6.06-3.47Z" style="opacity:0.15"></path><path d="M349,404.3a.55.55,0,0,0,.61.49.56.56,0,0,0,.49-.61.55.55,0,0,0-.61-.49A.55.55,0,0,0,349,404.3Z" style="opacity:0.15"></path><path d="M346.26,407.22a.56.56,0,0,0,1.11-.11.56.56,0,0,0-.61-.49A.55.55,0,0,0,346.26,407.22Z" style="opacity:0.15"></path><path d="M343.57,410.15a.55.55,0,0,0,1.1-.12.56.56,0,0,0-.61-.49A.54.54,0,0,0,343.57,410.15Z" style="opacity:0.15"></path><path d="M340.87,413.07A.56.56,0,0,0,342,413a.57.57,0,0,0-.62-.49A.55.55,0,0,0,340.87,413.07Z" style="opacity:0.15"></path><path d="M338.17,416a.57.57,0,0,0,.62.49.55.55,0,0,0,.49-.61.56.56,0,0,0-.61-.49A.56.56,0,0,0,338.17,416Z" style="opacity:0.15"></path><path d="M349.53,404.46a.25.25,0,0,0,.14-.06.23.23,0,0,0,0-.32,9.17,9.17,0,0,0-6.27-2.49h0a.22.22,0,1,0,0,.44,8.84,8.84,0,0,1,5.93,2.37A.23.23,0,0,0,349.53,404.46Z" style="fill:#263238"></path><path d="M346.83,407.38a.27.27,0,0,0,.14-.07.21.21,0,0,0,0-.31,9.18,9.18,0,0,0-6.27-2.5h0a.23.23,0,0,0,0,.45,8.92,8.92,0,0,1,5.94,2.36A.22.22,0,0,0,346.83,407.38Z" style="fill:#263238"></path><path d="M344.13,410.31a.2.2,0,0,0,.15-.06.24.24,0,0,0,0-.32,9.25,9.25,0,0,0-6.28-2.49h0a.23.23,0,0,0-.21.23.22.22,0,0,0,.24.21,8.84,8.84,0,0,1,5.93,2.37A.22.22,0,0,0,344.13,410.31Z" style="fill:#263238"></path><path d="M341.44,413.24a.27.27,0,0,0,.14-.07.21.21,0,0,0,0-.31,9.18,9.18,0,0,0-6.27-2.5h0a.23.23,0,0,0,0,.45,8.92,8.92,0,0,1,5.94,2.36A.22.22,0,0,0,341.44,413.24Z" style="fill:#263238"></path><path d="M338.74,416.16a.2.2,0,0,0,.15-.06.23.23,0,0,0,0-.32,9.19,9.19,0,0,0-6.27-2.49h0a.23.23,0,0,0-.21.23.22.22,0,0,0,.24.21,8.9,8.9,0,0,1,5.93,2.37A.19.19,0,0,0,338.74,416.16Z" style="fill:#263238"></path><path d="M397.8,433.63c.77,4.31,1.8,7.1,3.66,9.46s5.19,2.63,7.67,2.11a10.57,10.57,0,0,0,8.23-8.05c.8-3,.25-6.38-.9-10.32Z" style="fill:#263238"></path><path d="M407.47,400.57c1.24-.05,2.29,5.73,3.7,11.47,1.5,6.16,3.85,9.43,5,13.56,1.57,5.74,1.47,8.42-.17,12.2s-10.2,8.4-14.41,3.76c-3.44-3.79-4.11-8.36-4.55-14.23a146,146,0,0,0-1.51-14.91c-.76-4.35-1.58-8.56-.58-9.17.16.63.34,1.44.5,2.06s.53,2.83,1.22,2.78a9.37,9.37,0,0,0-.18-1.66,1.91,1.91,0,0,1,.16-1.45,2.32,2.32,0,0,1,1.29-.76,36.05,36.05,0,0,1,3.56-1c.6-.12,1.21-.22,1.82-.29a20.62,20.62,0,0,1,3.22-.24,1.08,1.08,0,0,1,.73.51,1.87,1.87,0,0,1,.15.66,5.31,5.31,0,0,0,.29,1.19c.07.16.22.36.39.3s.17-.23.15-.38c-.08-.71-.23-1.21-.36-2-.06-.37-.19-.88-.24-1.26S407.54,400.94,407.47,400.57Z" style="fill:#37474f"></path><path d="M411.85,427.58a.42.42,0,0,1-.33.51.43.43,0,1,1,.33-.51Z" style="opacity:0.15"></path><path d="M411,423.59a.43.43,0,0,1-.33.51.45.45,0,0,1-.52-.33.44.44,0,0,1,.33-.51A.45.45,0,0,1,411,423.59Z" style="opacity:0.15"></path><path d="M410.11,419.82a.43.43,0,0,1-.84.19.43.43,0,0,1,.33-.51A.43.43,0,0,1,410.11,419.82Z" style="opacity:0.15"></path><path d="M409.28,416.11a.43.43,0,1,1-.84.18.43.43,0,0,1,.84-.18Z" style="opacity:0.15"></path><path d="M399.68,417.85a.43.43,0,0,1-.32.51.44.44,0,0,1-.52-.33.43.43,0,0,1,.84-.18Z" style="opacity:0.15"></path><path d="M400.52,421.59a.43.43,0,0,1-.84.18.42.42,0,0,1,.33-.51A.43.43,0,0,1,400.52,421.59Z" style="opacity:0.15"></path><path d="M401.36,425.35a.42.42,0,0,1-.32.51.44.44,0,0,1-.52-.32.43.43,0,0,1,.33-.51A.43.43,0,0,1,401.36,425.35Z" style="opacity:0.15"></path><path d="M402.26,429.34a.43.43,0,0,1-.33.51.42.42,0,1,1-.18-.83A.43.43,0,0,1,402.26,429.34Z" style="opacity:0.15"></path><polygon points="406.08 430.82 399.42 403.03 400.99 402.81 406.08 430.82" style="opacity:0.15"></polygon><path d="M411.47,427.88h-.06c-2.9-.29-7.68.56-9.46,1.7a.21.21,0,0,1-.3-.06.21.21,0,0,1,.07-.3c1.88-1.21,6.7-2.08,9.73-1.77a.21.21,0,0,1,.2.23A.22.22,0,0,1,411.47,427.88Z" style="fill:#263238"></path><path d="M410.58,423.89h-.11c-2.28-.76-7.38.41-9.41,1.71a.22.22,0,0,1-.24-.36c2.12-1.36,7.39-2.56,9.78-1.76a.21.21,0,0,1,0,.41Z" style="fill:#263238"></path><path d="M409.74,420.13h-.12c-2.27-.76-7.38.42-9.41,1.72a.22.22,0,0,1-.3-.07.22.22,0,0,1,.07-.3c2.11-1.35,7.38-2.56,9.78-1.76a.22.22,0,0,1,.14.27A.24.24,0,0,1,409.74,420.13Z" style="fill:#263238"></path><path d="M408.9,416.41h-.11c-2.28-.76-7.38.42-9.41,1.71a.22.22,0,0,1-.24-.36c2.12-1.36,7.39-2.56,9.79-1.76a.23.23,0,0,1,.14.27A.2.2,0,0,1,408.9,416.41Z" style="fill:#263238"></path><path d="M402.59,263.21c.45,5.56,1,10.87,1.36,16.65,2,31.43,3.31,65.06,3.31,65.06.26,2.72,2.39,12.69,3.71,26.11,1.4,14.16,1.24,40.83,1.24,40.83s-10,5.32-18.09,2.65c0,0-8.67-44.65-12.82-61.33-3.93-15.79-10.07-45.71-10.07-45.71L367,337.08s.56,10.21.26,17.35c-.36,8.31-5.71,48.23-5.71,48.23s-11.21,4.91-19.61-1.47c0,0-1.79-54-2-64-.46-19.6.48-50.32,2.33-75Z" style="fill:#263238"></path><path d="M386.16,295.06q1.14,12.87,2.53,25.73.68,6.42,1.42,12.84l.73,6.42.38,3.21c.12,1.07.34,2.13.51,3.19,1.42,8.5,3.61,23.94,5.17,32.41s3.21,16.94,5,25.38q-1.69-12.83-3.71-25.57c-1.34-8.51-3.44-23.95-4.9-32.44-.17-1.06-.4-2.12-.53-3.18l-.39-3.21-.82-6.4q-.81-6.4-1.69-12.81Q388.13,307.84,386.16,295.06Z"></path><path d="M346.89,289.61c-.91,8-1.39,16.06-1.74,24.11s-.66,16.12-.36,24.16.41,21.55.71,29.6.67,16.09,1.16,24.13q.19-12.08.08-24.15c-.06-8-.2-21.54-.37-29.59l-.15-6,0-1.51,0-1.49,0-3,.15-12.07.2-12.07C346.62,297.66,346.75,293.64,346.89,289.61Z"></path><path d="M371.23,307.47l-3.53-19.61s-9.81-1.42-14.83-5.89c0,0,3.24,5.91,12.49,8.23l3.51,17.33L367,337.08Z"></path></g><g id="freepik--Top--inject-4"><path d="M284.8,194.89a32.31,32.31,0,0,1-5.6-4.14,33,33,0,0,0-4.78-3.12c-1.71-1-3.45-2-5.16-3-.42-.26-.8.07-1,.47a2.82,2.82,0,0,0,0,2.41,6.13,6.13,0,0,0,1.48,2A16.86,16.86,0,0,0,271.4,191c.62.47,2.1,1.56,1.26,2.41Z" style="fill:#ffa8a7"></path><path d="M284.8,194.89a13.09,13.09,0,0,1-3.93-2.46,19.8,19.8,0,0,0-1.82-1.52,20.88,20.88,0,0,0-2-1.33c-1.28-.82-2.63-1.58-3.93-2.41s-2.6-1.65-3.87-2.53c1.4.66,2.77,1.38,4.12,2.11s2.7,1.47,4,2.29a16.2,16.2,0,0,1,1.89,1.4c.6.52,1.22,1,1.79,1.56s.73.71,1.47,1.37A18.22,18.22,0,0,0,284.8,194.89Z" style="fill:#f28f8f"></path><path d="M355.71,187.42c-2.67,0-3.84.12-12.53,4.75L317,205.82s-14.29-4.35-21.09-6.59c-7.89-2.59-9-3.17-11.11-4.34l-12.14-1.51c-.61.61-2.26.57-3.07.65-4.51.48-10.46-1.8-12.83-2.6s-3-.1-2.88,1c.06.38.54.89,1.24,1.43-1.3-.5-2.47-.72-3.2-.21-.91.65.31,1.8.88,2.25s1.51,1.23,1.51,1.23c-.42.22-.47,1-.44,1.32a2.07,2.07,0,0,0,.44.92,12.57,12.57,0,0,0,4.87,3.14,9.17,9.17,0,0,0-2.53-.37.9.9,0,0,0-.82.8c-.05.54,1.9,1.72,2.37,2,3.88,2.07,3.88,1.88,6.45,2.31a28.52,28.52,0,0,0,4.7.35c1-.06,2.76-.11,4.3-.27,3.92-.41,6.36.34,7.73,1,10.51,5.4,15.73,7.87,28.36,14,6.74,3.28,9.8,2,16-.89,6.54-3,13.07-5.86,23.61-10.66C356.94,207.44,358,192.28,355.71,187.42Z" style="fill:#ffa8a7"></path><path d="M259.18,202.56a25.17,25.17,0,0,0,3.57.74c1.2.19,2.42.24,3.65.43a14.4,14.4,0,0,1-3.71,0A9.09,9.09,0,0,1,259.18,202.56Z" style="fill:#f28f8f"></path><path d="M355.4,186.26c-5.39,1.1-11.69,4.81-20.28,9.37s-18.09,9.7-18.09,9.7l-13.32-3.61a20.58,20.58,0,0,1-1.44,8.31,16.35,16.35,0,0,1-5.84,6.52s9.16,4.93,14.88,7.22,8,1.26,13.17-.92S353.9,210,353.9,210,362.27,192.84,355.4,186.26Z" style="fill:#455a64"></path><path d="M281,201.14a3.18,3.18,0,0,0-.25-.67,4.54,4.54,0,0,0-.87-1.08,6,6,0,0,0-2.35-1.37,5.93,5.93,0,0,0-5.65,1.25s-.06.23,0,.2c1.75-.69,3.53-1.29,5.42-.72a6.19,6.19,0,0,1,3.47,3.2c.07.13.21.06.22-.07A2.63,2.63,0,0,0,281,201.14Z" style="fill:#f28f8f"></path><path d="M266.92,197.14a42.74,42.74,0,0,1-5.91-1.32c-1.84-.5-3.66-1.14-5.47-1.75,0,0,0,.05,0,.06a24.23,24.23,0,0,0,5.77,2.24,34.32,34.32,0,0,0,5.61.81S266.93,197.14,266.92,197.14Z" style="fill:#f28f8f"></path><path d="M267.44,200.49a42.6,42.6,0,0,1-5.9-1.32c-.74-.2-1.48-.42-2.21-.66s-1.45-.44-2.14-.74l-.63-.28a5.21,5.21,0,0,0-.82-.33,2.37,2.37,0,0,0-.92,0s-.06,0,0,0a3.17,3.17,0,0,1,1.12.27,5.58,5.58,0,0,1,.69.35c.21.12.41.2.62.3.65.31,1.32.59,2,.84.85.31,1.72.57,2.6.8a34.44,34.44,0,0,0,5.62.81S267.46,200.49,267.44,200.49Z" style="fill:#f28f8f"></path><g id="freepik--Chest--inject-4"><path d="M344.09,215.37c.81-18.28,6.3-27.15,11.31-29.11,2.79-.6,17.48-1.83,24.85-.52,10.58,1.88,17.4,5.82,25.15,11.94,5.73,12-2,23.6-2.86,40.65-.69,13.43-.21,18,.93,31.69-12.18,9.5-54.64,7.25-61.49-5.75C342.63,249.88,343.15,236.39,344.09,215.37Z" style="fill:#9615DB"></path><g id="freepik--Head--inject-4"><path d="M388.44,180.36c1.4-4.27,6.44-8.19,9-11.72s4-6.09,4.3-9.58c.18-2.07-.7-5-2.14-5.85a9.63,9.63,0,0,0-5.22-12.93,32.28,32.28,0,0,1-4-1.79c-1.55-.94-1.72-2.32-2.89-3.65-2-2.29-5.85-2.91-7.76-.18-1.23-2.2-3.31-2.46-5.79-2.21a4.13,4.13,0,0,0-3.82,4.15c-2.92-2.27-6.19-.45-6.77,1.39-.42,1.35-.3,2.56-1.39,3.67s-3.16.94-3.58-.28c-.62,1.92-.08,3.54,2.08,3.74a4.52,4.52,0,0,0-1.12,3.68,4.11,4.11,0,0,0,3.27,3.36,6.28,6.28,0,0,0,2.68,5.79c3,2,6.5,3.06,9.88,4.3l4,1.47c.23.09,1.47.35,1.58.58Z" style="fill:#263238"></path><path d="M394.6,175.48a4.3,4.3,0,0,1-5.15-.92l-2.18,13.17c-2.95,6.12-11,9.42-16.38,8.29-6.24-1.31-6.09-5.78-1.16-10.06l.41-4a42.66,42.66,0,0,1-5.08-1c-3.36-1-5.53-4.15-5.95-8a38.93,38.93,0,0,1,1.77-14.8,12.94,12.94,0,0,0,.72-3.58,17.28,17.28,0,0,1,2.22-7.58c4.24-2.48,13.13-2.21,20.54,4-1.66,4.71-.35,8.83,2.9,11.2-.35,1.29-1,4.57,1.15,4.83,1.56.19,1.95-1.74,3.8-3.22s5.63-1.38,6.69,1.36C400.39,169,398.27,174,394.6,175.48Z" style="fill:#ffa8a7"></path><path d="M370.14,182c5.55.16,9.87.18,13.3-3.34a34.81,34.81,0,0,0,4.24-6,26.66,26.66,0,0,1-3.54,7.74c-1.75,2.32-5.54,4.07-14.19,3.53Z" style="fill:#f28f8f"></path><path d="M375.58,161.3a1.56,1.56,0,0,0,1.32,1.79,1.58,1.58,0,0,0,1.75-1.39,1.55,1.55,0,1,0-3.07-.4Z" style="fill:#263238"></path><path d="M376.74,156.33l3.26,1.92a2,2,0,0,0-.7-2.66A1.84,1.84,0,0,0,376.74,156.33Z" style="fill:#263238"></path><path d="M363.53,154.92l3.78-.46a1.83,1.83,0,0,0-2.05-1.69A2,2,0,0,0,363.53,154.92Z" style="fill:#263238"></path><path d="M363.55,158.66a1.57,1.57,0,0,0,1.32,1.8,1.59,1.59,0,0,0,1.75-1.4,1.57,1.57,0,0,0-1.32-1.8A1.59,1.59,0,0,0,363.55,158.66Z" style="fill:#263238"></path><polygon points="364.25 165.08 369.61 168.56 371.93 157.63 364.25 165.08" style="fill:#f28f8f"></polygon><path d="M375,170.61,368.47,172a3.25,3.25,0,0,0,3.87,2.65A3.46,3.46,0,0,0,375,170.61Z" style="fill:#b16668"></path><path d="M374.17,171.67a3.56,3.56,0,0,1,.8,0,3.43,3.43,0,0,1-2.63,3,3.23,3.23,0,0,1-1.07,0A3,3,0,0,1,374.17,171.67Z" style="fill:#f28f8f"></path></g></g><path d="M334.62,233.17a33.64,33.64,0,0,1-6.77-1.65,32.22,32.22,0,0,0-5.61-1c-2-.27-3.95-.49-5.91-.77-.5-.07-.72.38-.76.83a2.81,2.81,0,0,0,.91,2.23,6.24,6.24,0,0,0,2.14,1.26,15.89,15.89,0,0,0,2.12.69c.75.2,2.55.63,2.1,1.74Z" style="fill:#ffa8a7"></path><path d="M334.62,233.17a12.78,12.78,0,0,1-4.58-.76,20.43,20.43,0,0,0-2.27-.69,20.16,20.16,0,0,0-2.34-.46c-1.5-.25-3-.44-4.56-.7s-3-.51-4.54-.84c1.54.07,3.08.21,4.61.35s3.05.31,4.6.57a16.8,16.8,0,0,1,2.28.55c.75.26,1.5.44,2.24.75s1,.37,1.89.69A17.54,17.54,0,0,0,334.62,233.17Z" style="fill:#f28f8f"></path><path d="M405.12,198.54c-5.19-1.06-11.5,1.91-17.71,9.54l-18.88,22.71s-14.85,1.52-22,2.09c-8.27.66-9.49.54-11.92.29l-11.78,3.3c-.33.8-1.86,1.4-2.58,1.79-4,2.18-10.34,2.38-12.84,2.57s-2.84,1.08-2.25,2.07a3,3,0,0,0,1.7.85c-1.4,0-2.56.28-3,1-.59,1,1,1.53,1.68,1.73l1.86.55a1.34,1.34,0,0,0-.06,1.28,3,3,0,0,0,.93.79,12.63,12.63,0,0,0,5.71,1,9.88,9.88,0,0,0-2.47.63.9.9,0,0,0-.46,1.06c.16.52,2.42.86,3,.91,4.37.41,4.3.23,6.84-.37a27,27,0,0,0,4.47-1.49c.92-.44,2.5-1.17,3.85-1.91a13.78,13.78,0,0,1,7.55-2c11.78.92,17.55,1.18,31.57,2,7.48.42,9.81-2,14.41-7,4.85-5.31,9.78-10.46,17.65-19C406,216.83,409.49,209,405.12,198.54Z" style="fill:#ffa8a7"></path><path d="M307.38,247.07a36.17,36.17,0,0,0,6.93.58,12.82,12.82,0,0,0,3.36-.74l3.35-1a31.73,31.73,0,0,1-3.23,1.39,11.9,11.9,0,0,1-3.45.81A22.35,22.35,0,0,1,307.38,247.07Z" style="fill:#f28f8f"></path><path d="M307.15,243.9a36.17,36.17,0,0,0,6.93.58,12.75,12.75,0,0,0,3.35-.74l3.35-1a29.91,29.91,0,0,1-3.23,1.39,11.75,11.75,0,0,1-3.45.81A22.33,22.33,0,0,1,307.15,243.9Z" style="fill:#f28f8f"></path><path d="M314,250.15a23.61,23.61,0,0,0,3.58-.7c1.18-.29,2.32-.72,3.53-1a14.46,14.46,0,0,1-3.41,1.45A9.26,9.26,0,0,1,314,250.15Z" style="fill:#f28f8f"></path><path d="M402.05,195.14c5.45,3.54,6.87,6.86,7.46,9.47s.74,9.38-4.65,16.18-22.63,22.7-25.74,25.39-3.12,3.49-9.38,3.16c-6.57-.35-11.54-.9-11.54-.9a13.29,13.29,0,0,0,2.38-8.93c-.35-5.65-2.73-8.07-2.73-8.07l10.41-1.2s11.22-13.69,17.48-21.19S396.55,196.86,402.05,195.14Z" style="fill:#455a64"></path></g></g></g><g id="freepik--character-1--inject-4"><g id="freepik--character--inject-4"><g id="freepik--bottom--inject-4"><g id="freepik--bottom--inject-4"><polygon points="160.19 418.23 163.75 416.71 160.38 415.55 160.19 418.23" style="fill:#263238"></polygon><path d="M194.25,426.6s-39.91-20.91-40.57-18.16a4.17,4.17,0,0,0-.08,1.67l-.1-.15.46,5.22a12.13,12.13,0,0,0,6.23,3c0-.24.13-1.79.19-2.67a21.49,21.49,0,0,1,3.51,2.14c2.52,1.89,4,5.05,6.62,8.75,1.89,2.71,5.44,4.12,10.76,5.19,5.73,1.15,10.87.32,12.4-1.16C194.88,429.3,194.44,427,194.25,426.6Z" style="fill:#263238"></path><path d="M193.19,425.36c-.37-.44-1.74-2.14-3.62-4-1.64-1.64-3.55-3.7-5.62-5.4a51.76,51.76,0,0,1-4.7-5.13c-1.83-2.71-3.83-5.39-5-8.44-.56-1.44-1-3.15-.63-8.47.48-7.43.77-9.1,1.12-14.75L154,377.77c.39,3.16,1.26,7.61,1.71,11.9.56,5.42,2.3,6-.1,11.32-.71,1.55-1.72,3-1.9,4.73-.28,2.77,1.75,5.28,4.09,6.78,1.94,1.23,4.23,1.85,6.11,3.16a20.2,20.2,0,0,1,4.81,5.32c1.28,1.85,2.27,4,4.13,5.37a18.1,18.1,0,0,0,6.54,2.7,36.26,36.26,0,0,0,8.94,1C192.63,429.92,195.88,428.54,193.19,425.36Z" style="fill:#f28f8f"></path><path d="M191,422.42c-1.68-1.59-4.06-3.87-6.94-6.45a7.73,7.73,0,0,0-6.39.22c-6.26,2.88-7.56,7.38-7.56,7.38a8.78,8.78,0,0,0,4.72,4.65c6.86,3.49,19.49,3.22,19.8,0C194.82,426.12,193,424.35,191,422.42Zm-34.91-22.36s-.47,1-1.67,3.08a5.91,5.91,0,0,0-.29,6.28,9.36,9.36,0,0,0,5.93,4.56C162.35,407.91,158.44,401.53,156.08,400.06Z" style="fill:#37474f"></path><path d="M120.91,405c1,1.87-1,11-1.07,15.79-.1,4.32-.12,12.05-1.88,16.16-2.08,4.87-6,10.37-11.94,5.06-3.7-3.29-5.65-7.28-5.69-13.51,0-4.34,2.29-10.1,4.29-15.22,2.34-6,3.31-9.2,3.31-9.2Z" style="fill:#263238"></path><path d="M109.82,374.94c-1.26,10-1.27,15.68-1.71,22.1a85.47,85.47,0,0,1-1.57,10c-.88,4.09-2.62,9.59-3.48,12.18-1.2,3.62-2.07,5.89-1,10.18a5.65,5.65,0,0,0,.38,1c1.65,3.61,6.33,6.66,7.93,6.39A2.85,2.85,0,0,0,113,437.9a3.35,3.35,0,0,0,.53-.07,3.79,3.79,0,0,0,.53-.14,5,5,0,0,0,2.86-2.9,7.14,7.14,0,0,0,.32-.89,34,34,0,0,0,1.54-10.38c.06-2.34.43-6.42,1-10.16s3.33-13.95,4.88-19.55c1.28-4.64,3.77-14.16,3.77-14.16Z" style="fill:#f28f8f"></path><path d="M101.72,423.92c4-1.21,15.46-.18,16.83,5.05-.33,4.77-.84,7.82-4.41,11.65-4.74,5.1-9.88-1.27-11.73-5.19S101,426.44,101.72,423.92Z" style="fill:#37474f"></path><path d="M131.43,243.45c-5.57,8.91-13.29,12.34-14.43,40.29-1.11,27.37-1.54,38.1-1.81,41.4-.46,5.62-3.59,10.88-6.2,27s-2.51,45.63-2.51,45.63a19.46,19.46,0,0,0,10,4.65c5.7.84,8.21-1.39,8.21-1.39s10.84-43.7,13.57-53.36,10.88-41.47,10.88-41.47L152.36,333s-3.22,8.43-2.28,22.77,6,41.2,6,41.2,3,2.32,9.2,2,8.63-2.44,8.63-2.44,5.52-53.25,6.44-69.39,4-55.91-2.72-80.76Z" style="fill:#455a64"></path><path d="M156,275.47l-6.89,30.76L152.36,333l-1-27,6-25.22c3.95-.71,13.07-4.87,15.89-11.4C166.87,275.31,156,275.47,156,275.47Zm-17.16-19.19c.83-2.57,1.71-5.12,2.67-7.69a38.82,38.82,0,0,0-3.93,7.22,72.43,72.43,0,0,0-2.78,7.72c-.77,2.62-1.43,5.28-1.94,8a53.09,53.09,0,0,0-1,8.14c.8-2.62,1.56-5.22,2.31-7.82s1.49-5.2,2.28-7.79S138.05,258.85,138.87,256.28Zm-3.8-2.18c1-1.54,1.94-3.09,2.84-4.72a29.19,29.19,0,0,0-3.93,3.93,39.82,39.82,0,0,0-3.26,4.49,35.17,35.17,0,0,0-2.57,4.95,21.62,21.62,0,0,0-1.56,5.35l2.76-4.75c.93-1.55,1.86-3.11,2.83-4.64S134.11,255.65,135.07,254.1Zm-9.16,103.49q-3,12.48-5.65,25,3.64-12.31,7-24.71c2.23-8.26,4.36-16.51,6.49-24.84s3.54-16.79,4.84-25.25S141,290.89,142,282.39c-1.66,8.39-3.2,16.81-4.75,25.22s-3.16,16.79-5.2,25.07S127.88,349.27,125.91,357.59Zm48.66-39.52c0,3.72.05,7.45-.17,11.11s-.64,7.4-1,11.1l-1.06,11.12q-1.08,11.13-1.89,22.28,1.81-11,3.22-22.13c.95-7.4,1.85-14.78,2.44-22.26.31-7.54,0-15-.33-22.42s-.91-14.89-1.73-22.31l.39,22.35C174.49,310.63,174.57,314.35,174.57,318.07Z" style="fill:#37474f"></path></g></g><g id="freepik--top--inject-4"><path d="M188.38,137.48c-2.59-5-4.64-8.8-4.85-12a31.73,31.73,0,0,1,.22-5.34A40,40,0,0,0,184,114c0-.53,0-1.06-.11-1.59a21.83,21.83,0,0,0-1.08-4.28c-.44-1.39-.77-2.8-1.33-4.15a1,1,0,0,0-.21-.37.72.72,0,0,0-1,.11,1.79,1.79,0,0,0-.36,1,12.6,12.6,0,0,0,.21,3c.07.6.1,1.2.12,1.79,0,.3,0,.6,0,.9,0,.07-.1.63-.18.27-.14-.71-.24-1.45-.44-2.14-.27-1-.59-1.89-1-2.82-.54-1.39-1.21-3.36-2.37-4.36-.42-.37-1.11-.71-1.56,0-.14-.32-.19-.55-.46-1.23a10.78,10.78,0,0,0-.77-1.65.67.67,0,0,0-.26-.29.61.61,0,0,0-.33,0,2,2,0,0,0-1.25.73c-.32.39-.31.83-.53,1.25a2.17,2.17,0,0,1-.41.45,2.87,2.87,0,0,0-.58,2.47,24.71,24.71,0,0,0,.71,3.42,33.92,33.92,0,0,1,1,3.82,15.73,15.73,0,0,1,.24,1.81c0,.18.19,1.36-.29,1.05a.63.63,0,0,1-.23-.4,6.4,6.4,0,0,0-2-3.09c-.61-.51-2.47-1.29-2.51.11a3,3,0,0,0,.27,1.09c1.06,2.83,1.24,5.88,1.6,8.85a19.94,19.94,0,0,0,1.62,5.87,22.5,22.5,0,0,0,1.45,2.47,13.67,13.67,0,0,1,1.06,2.66c1.34,3.87,7.19,23.1,8.91,29.17,0,0-10,19.93-12.32,23.82-1.5,2.52-4.88,5.09-7.13,7.06-3.22,10.16,12.06,25.06,17.26,23.76-.08-1.59-.82-8.71,2.19-15.26,6.82-14.85,13.56-30,15.29-33.81,2.45-5.37,2.56-6.56-.86-13C193.34,146.7,191,142.46,188.38,137.48Z" style="fill:#f28f8f"></path><path d="M175.32,117.14c.17-.33.57-1.36-.09-.71a6.44,6.44,0,0,0-1.56,3.23,7.12,7.12,0,0,0,.18,3.55,3.07,3.07,0,0,0,1.72,2.13c-.29-.76-.69-1.48-.94-2.25a7.64,7.64,0,0,1-.28-2.33,10.24,10.24,0,0,1,.51-2.69A8,8,0,0,1,175.32,117.14Z" style="fill:#b16668"></path><path d="M173.91,110.26c-.28-1.1-.66-2.18-1-3.28a36.47,36.47,0,0,1-1.61-6.89c0-.08-.08-.06-.08,0a21.31,21.31,0,0,0,1.05,6.28c.27,1,.57,2,.87,3s.47,2,.74,3.08c0,.09.13.1.16,0A4.34,4.34,0,0,0,173.91,110.26Z" style="fill:#b16668"></path><path d="M176.9,110.21c-.21-1-.51-1.9-.77-2.85s-.67-2.43-.9-3.37a4.37,4.37,0,0,1-.21-2.8s0-.11,0-.09c-.66.35-.53,1.19-.41,1.81.22,1.06.66,2.66.92,3.71s.55,2,.8,3.07a14.2,14.2,0,0,1,.34,1.7,5.78,5.78,0,0,0,.23,1.37c0,.06.07.11.12,0C177.43,112.14,177.07,110.94,176.9,110.21Z" style="fill:#b16668"></path><path d="M175.73,190.32a9.28,9.28,0,0,0-.46-3.31c-1.31-4-5.56-7.43-9.21-9.21-4-2-8.12-3.25-11.76-5.9l8.9-7.27c3.05-3.57,3.48-9,2.56-13.21-2.46-11.26-14.67-12.14-20.66-11.07-11.75,2.09-15.74,6.12-16.12,12.2,0-.45-3.7,1.48-4,1.73a11.2,11.2,0,0,0-2.9,5.69c-.77,3.28-.42,6.46-.52,9.75a14.37,14.37,0,0,1-1.68,6.76c-1.1,1.71-3.7,3.1-5.32,4.29s-3.28,2.26-5,3.35a23.68,23.68,0,0,0-6.1,5,12.29,12.29,0,0,0-2.08,10.46,11.94,11.94,0,0,0,7.29,8.35c-1.48,3.78-.6,8.14,1.22,11.77,1.89,3.81,5,5.79,8.92,7.06a17,17,0,0,0,11.07-.3,7.53,7.53,0,0,1,2.81-.9,17.11,17.11,0,0,1,2.23.66,21.73,21.73,0,0,0,7,.38,13.49,13.49,0,0,0,8.05-3.67,10.68,10.68,0,0,0,2.53-4.16,1.18,1.18,0,0,1,1.74-.95,12.21,12.21,0,0,0,13.29-17.34,12.18,12.18,0,0,0,6.64-5.19A10.45,10.45,0,0,0,175.73,190.32Z" style="fill:#263238"></path><path id="freepik--chest--inject-4" d="M123.23,257c-3.63-2.2,3.13-7.42,3.13-19.58,0-4.12-1.38-14.41-1.38-14.41s6.88-8.71,4.48-28.52l19.82-5.75,13.18,2.05c4.07,2.78,10.26,7,15.2,12.53,6,6.78,6.47,16-.6,22.43-.08,1.22-.17,12.64.38,17.41.59,5.21,4.77,13.15,2.37,14.68C164,267.9,138,266,123.23,257Z" style="fill:#e0e0e0"></path><path d="M92.13,149.71c.94-5.79,1.72-10.26.86-13.53a21.16,21.16,0,0,0-2.07-5c-.47-.79-.93-1.58-1.36-2.39a12.94,12.94,0,0,1-1.25-3.15c-.27-1.14-.44-2.29-.61-3.44-.12-.88-.25-1.75-.41-2.62-.09-.43-.67-1.71.07-1.79a2.4,2.4,0,0,1,2.07,1,5.07,5.07,0,0,1,.8,1.75c.06.22.59,2.3.82,2.14,0,0,0-.07,0-.11a9.52,9.52,0,0,0,0-3.06,20.66,20.66,0,0,1-.17-3.77c0-.27.06-.55.11-.82a16.89,16.89,0,0,1,.43-1.87,9.47,9.47,0,0,1,.9-2.32,15.31,15.31,0,0,0,.92-1.49,5.93,5.93,0,0,0,.4-1.3l.42-1.82a.74.74,0,0,1,.17-.37.58.58,0,0,1,.31-.13,2.07,2.07,0,0,1,1.49.31c.43.28.57.72.93,1.06a1.86,1.86,0,0,0,.55.31,3,3,0,0,1,1.39,2.27,26.07,26.07,0,0,1,.42,3.62,16,16,0,0,0,.25,3.79c.17.08.29-.16.31-.34l.46-3.84c.05-.44.24-1,.69-1a.73.73,0,0,1,.43.19,3.8,3.8,0,0,1,1.19,2.66c.36,2.9-.26,6,.79,8.69.32.82.77,1.57,1.15,2.35a12.63,12.63,0,0,1,1,8.41,15.47,15.47,0,0,0-.48,3.86c-.07,4.29,1.26,25.27,1.55,31.86,0,0,13.4,14.58,17,17.68a42.31,42.31,0,0,0,9.2,6.14c6.54,9,.67,24.33-7.94,29.36-.45-1.6-2.59-5.58-7.16-11.57-9.94-13.07-23.65-28.49-26.09-32.12-3.42-5.11-3.58-5.81-2.58-12.15C90.2,160.48,91.19,155.51,92.13,149.71Z" style="fill:#f28f8f"></path><path d="M97,107.24c-1,.11-.9,1.66-.94,2.35-.25,4-.53,8.1.79,12a3,3,0,0,0-.09-1.29,38.45,38.45,0,0,1-.37-9c0-.59,0-1.18,0-1.76,0-.77-.07-1.6.61-2.1C97,107.38,97,107.23,97,107.24Z" style="fill:#b16668"></path><path d="M93.23,119.07c-.1-1-.15-2-.15-3.07s0-2,.08-3.08a28,28,0,0,0,.08-3.17c0-.09-.12-.16-.15,0a17.1,17.1,0,0,0-.4,3.27c-.09,1.1-.11,2.21-.1,3.31a16.62,16.62,0,0,0,1,6.19c.06.14.18.08.17,0C93.6,121.29,93.35,120.19,93.23,119.07Z" style="fill:#b16668"></path><g id="freepik--head--inject-4"><path d="M134.79,179.48a5.87,5.87,0,0,1-5.56-1.1c-3.27-2.56-4-5.6-3.12-7.87.77-1.87,3.19-3.39,5.2-2.56,2.16.89,2.39,1.87,3.36,3.13s3.8.65,3.53-5c-.25-5.29-.27-10.19,1.87-13,3.19-4.15,7.51-4.3,9.38-2.49,1.13-2.69,3.32-4.07,6.15-3.12s5.47,4.48,8,14.18c2.62,9.88,1.87,15.58,0,17.82-2.06,2.49-4.53,3.25-7.61,4.11l1.53,7s6.84,6.18-.52,7.89c-9.15,2.12-16.94-4.81-17.74-6.55l-2.65-14.35S136.67,178.79,134.79,179.48Z" style="fill:#f28f8f"></path><path d="M149.33,164a1.7,1.7,0,0,1-1.89,1.51,1.75,1.75,0,1,1,1.89-1.51Z" style="fill:#263238"></path><path d="M161,157.5l-3.84-1.2a1.92,1.92,0,0,1,2.45-1.35A2.11,2.11,0,0,1,161,157.5Z" style="fill:#263238"></path><path d="M157.36,161.91a1.68,1.68,0,1,0,.59-2.35A1.71,1.71,0,0,0,157.36,161.91Z" style="fill:#263238"></path><path d="M146.61,159.18,143.4,162a2.07,2.07,0,0,1,.11-3A2.24,2.24,0,0,1,146.61,159.18Z" style="fill:#263238"></path><path d="M148.6,173.67l5.79.61a2.91,2.91,0,0,1-3.48,2.54A2.73,2.73,0,0,1,148.6,173.67Z" style="fill:#b16668"></path><path d="M152.51,176.66a3.05,3.05,0,0,0-3.57-2l-.27.09a2.56,2.56,0,0,0,2.24,2.1A3.28,3.28,0,0,0,152.51,176.66Z" style="fill:#ffa8a7"></path><polygon points="152.35 161.08 155.16 170.74 160.16 167.77 152.35 161.08" style="fill:#b16668"></polygon><path d="M156.06,183.58c-3.54.37-8.72.81-11.26-.15a9.51,9.51,0,0,1-5.56-4.78s1,4.79,5.27,6.79c4.43,2.09,12.13.8,12.13.8Z" style="fill:#b16668"></path></g></g></g></g><g id="freepik--paper-plane-1--inject-4"><g id="freepik--paper-plane--inject-4"><polygon points="63.33 233.95 97.46 213.78 73.77 240.12 63.33 233.95" style="fill:#9615DB"></polygon><polygon points="97.46 213.78 59.33 229.72 48.89 223.55 97.46 213.78" style="fill:#9615DB"></polygon><polygon points="59.33 229.72 61.65 239.53 63.33 233.95 97.46 213.78 59.33 229.72" style="fill:#9615DB"></polygon><polygon points="59.33 229.72 61.65 239.53 63.33 233.95 97.46 213.78 59.33 229.72" style="opacity:0.2"></polygon><polygon points="61.65 239.53 66.81 236.01 63.33 233.95 61.65 239.53" style="fill:#9615DB"></polygon><polygon points="63.33 233.95 66.81 236.01 65.98 236.57 63.33 233.95" style="opacity:0.2"></polygon><path d="M53.36,242.56a.64.64,0,0,1-.49-.22.66.66,0,0,1,0-.94c.69-.65,1.39-1.25,2.06-1.8a.67.67,0,1,1,.84,1.05c-.65.52-1.31,1.1-2,1.73A.67.67,0,0,1,53.36,242.56Z" style="fill:#e0e0e0"></path><path d="M103.51,319.35c-1.33,0-2.64,0-3.92-.07a.67.67,0,1,1,0-1.34c1.72.06,3.47.08,5.26.06h0a.67.67,0,0,1,0,1.34Zm5.78-.14a.68.68,0,0,1-.67-.64.67.67,0,0,1,.64-.7c1.72-.08,3.48-.2,5.24-.35a.69.69,0,0,1,.73.61.66.66,0,0,1-.61.72c-1.78.16-3.56.28-5.3.36Zm-14.07-.16h0c-1.78-.13-3.55-.31-5.29-.53a.67.67,0,0,1,.17-1.33c1.71.22,3.47.39,5.21.52a.67.67,0,0,1,0,1.34Zm23.72-.65a.67.67,0,0,1-.66-.59.65.65,0,0,1,.58-.74c1.71-.21,3.46-.45,5.21-.72a.67.67,0,0,1,.77.56.68.68,0,0,1-.56.77c-1.77.27-3.53.51-5.26.72Zm-33.33-.52h-.12c-1.77-.31-3.52-.67-5.21-1.06a.67.67,0,0,1,.31-1.31c1.66.39,3.39.74,5.13,1.05a.67.67,0,0,1-.11,1.33Zm-9.43-2.17-.19,0c-1.72-.5-3.42-1.06-5.06-1.66a.67.67,0,0,1,.46-1.26c1.61.59,3.28,1.14,5,1.63a.67.67,0,0,1-.18,1.31Zm-9.11-3.27a.86.86,0,0,1-.27-.05c-1.64-.72-3.26-1.5-4.8-2.32a.67.67,0,1,1,.63-1.18c1.51.8,3.09,1.56,4.71,2.26a.69.69,0,0,1,.35.89A.68.68,0,0,1,67.07,312.44ZM58.5,308a.64.64,0,0,1-.35-.1c-1.53-1-3-2-4.4-3a.67.67,0,0,1-.12-.94.68.68,0,0,1,.94-.13c1.35,1,2.79,2,4.29,3a.67.67,0,0,1,.21.92A.66.66,0,0,1,58.5,308Zm-7.72-5.81a.63.63,0,0,1-.45-.18,46.55,46.55,0,0,1-3.77-3.8.67.67,0,1,1,1-.89,47.39,47.39,0,0,0,3.67,3.7.66.66,0,0,1,0,.94A.65.65,0,0,1,50.78,302.14Zm-6.46-7.2a.68.68,0,0,1-.55-.28A38.47,38.47,0,0,1,41,290.09a.67.67,0,1,1,1.19-.62,36.67,36.67,0,0,0,2.72,4.41.68.68,0,0,1-.16.94A.71.71,0,0,1,44.32,294.94Zm-4.54-8.52a.68.68,0,0,1-.63-.44A30.34,30.34,0,0,1,38,282.09c-.09-.44-.18-.89-.25-1.33a.67.67,0,0,1,1.32-.22c.07.42.15.85.25,1.27a27.2,27.2,0,0,0,1.06,3.71.68.68,0,0,1-.41.86A.59.59,0,0,1,39.78,286.42ZM38,276.94a.66.66,0,0,1-.67-.64c0-.43,0-.86,0-1.29a37.94,37.94,0,0,1,.23-4.09.68.68,0,0,1,.74-.59.66.66,0,0,1,.59.74,37.76,37.76,0,0,0-.22,3.94c0,.41,0,.83,0,1.24a.66.66,0,0,1-.64.69Zm1-9.61H38.8a.69.69,0,0,1-.51-.81,46,46,0,0,1,1.52-5.14.67.67,0,0,1,1.26.46,44.66,44.66,0,0,0-1.47,5A.66.66,0,0,1,39,267.33Zm3.18-9.13a.75.75,0,0,1-.29-.06.67.67,0,0,1-.32-.89c.75-1.59,1.6-3.18,2.52-4.72a.67.67,0,0,1,1.15.69,49.68,49.68,0,0,0-2.45,4.6A.68.68,0,0,1,42.13,258.2Zm4.9-8.34a.67.67,0,0,1-.55-1.06c1.05-1.46,2.16-2.87,3.32-4.19a.67.67,0,0,1,1,.89c-1.13,1.28-2.22,2.66-3.24,4.08A.66.66,0,0,1,47,249.86Z" style="fill:#e0e0e0"></path><path d="M128.58,316.94a.67.67,0,0,1-.66-.55.66.66,0,0,1,.54-.78l2.62-.51a.67.67,0,0,1,.79.52.66.66,0,0,1-.52.79l-2.65.52Z" style="fill:#e0e0e0"></path></g></g></svg>